<mxfile host="Electron" agent="Mozilla/5.0 (Windows NT 10.0; Win64; x64) AppleWebKit/537.36 (KHTML, like Gecko) draw.io/24.7.17 Chrome/128.0.6613.36 Electron/32.0.1 Safari/537.36" version="24.7.17">
  <diagram name="Page-1" id="xdIxAq6NcsJIO8nC2R_t">
    <mxGraphModel dx="6586" dy="3344" grid="0" gridSize="10" guides="1" tooltips="1" connect="1" arrows="1" fold="1" page="1" pageScale="1" pageWidth="850" pageHeight="1100" math="0" shadow="0">
      <root>
        <mxCell id="0" />
        <mxCell id="1" parent="0" />
        <mxCell id="8SeHMaJ2_HK6g0SV8vvp-73" value="" style="group" parent="1" vertex="1" connectable="0">
          <mxGeometry x="-815" y="30" width="780" height="360" as="geometry" />
        </mxCell>
        <mxCell id="8SeHMaJ2_HK6g0SV8vvp-2" value="" style="rounded=0;whiteSpace=wrap;html=1;" parent="8SeHMaJ2_HK6g0SV8vvp-73" vertex="1">
          <mxGeometry y="30" width="780" height="330" as="geometry" />
        </mxCell>
        <mxCell id="8SeHMaJ2_HK6g0SV8vvp-3" value="&lt;font style=&quot;font-size: 27px;&quot;&gt;&lt;b&gt;START&lt;/b&gt;&lt;/font&gt;" style="text;html=1;align=center;verticalAlign=middle;whiteSpace=wrap;rounded=0;" parent="8SeHMaJ2_HK6g0SV8vvp-73" vertex="1">
          <mxGeometry x="20" width="60" height="30" as="geometry" />
        </mxCell>
        <mxCell id="8SeHMaJ2_HK6g0SV8vvp-4" value="" style="rounded=0;whiteSpace=wrap;html=1;" parent="8SeHMaJ2_HK6g0SV8vvp-73" vertex="1">
          <mxGeometry x="40" y="90" width="700" height="220" as="geometry" />
        </mxCell>
        <mxCell id="8SeHMaJ2_HK6g0SV8vvp-5" value="&lt;font style=&quot;font-size: 22px;&quot;&gt;&lt;b style=&quot;&quot;&gt;AGENTS&lt;/b&gt;&lt;/font&gt;" style="text;html=1;align=center;verticalAlign=middle;whiteSpace=wrap;rounded=0;" parent="8SeHMaJ2_HK6g0SV8vvp-73" vertex="1">
          <mxGeometry x="60" y="60" width="60" height="30" as="geometry" />
        </mxCell>
        <mxCell id="8SeHMaJ2_HK6g0SV8vvp-11" value="" style="group" parent="8SeHMaJ2_HK6g0SV8vvp-73" vertex="1" connectable="0">
          <mxGeometry x="60" y="120" width="120" height="160" as="geometry" />
        </mxCell>
        <mxCell id="8SeHMaJ2_HK6g0SV8vvp-6" value="" style="rounded=0;whiteSpace=wrap;html=1;" parent="8SeHMaJ2_HK6g0SV8vvp-11" vertex="1">
          <mxGeometry y="30" width="120" height="130" as="geometry" />
        </mxCell>
        <mxCell id="8SeHMaJ2_HK6g0SV8vvp-7" value="&lt;font style=&quot;font-size: 18px;&quot;&gt;&lt;span style=&quot;font-weight: normal;&quot;&gt;PORT : 8000&lt;/span&gt;&lt;/font&gt;" style="text;html=1;align=center;verticalAlign=middle;whiteSpace=wrap;rounded=0;fontStyle=1" parent="8SeHMaJ2_HK6g0SV8vvp-11" vertex="1">
          <mxGeometry x="5" width="110" height="30" as="geometry" />
        </mxCell>
        <mxCell id="8SeHMaJ2_HK6g0SV8vvp-8" value="&lt;font style=&quot;font-size: 18px;&quot;&gt;&lt;span style=&quot;font-weight: normal;&quot;&gt;/value&lt;/span&gt;&lt;/font&gt;" style="text;html=1;align=center;verticalAlign=middle;whiteSpace=wrap;rounded=0;fontStyle=1" parent="8SeHMaJ2_HK6g0SV8vvp-11" vertex="1">
          <mxGeometry x="5" y="40" width="110" height="30" as="geometry" />
        </mxCell>
        <mxCell id="8SeHMaJ2_HK6g0SV8vvp-9" value="&lt;font style=&quot;font-size: 18px;&quot;&gt;&lt;span style=&quot;font-weight: normal;&quot;&gt;/kill&lt;/span&gt;&lt;/font&gt;" style="text;html=1;align=center;verticalAlign=middle;whiteSpace=wrap;rounded=0;fontStyle=1" parent="8SeHMaJ2_HK6g0SV8vvp-11" vertex="1">
          <mxGeometry x="5" y="80" width="110" height="30" as="geometry" />
        </mxCell>
        <mxCell id="8SeHMaJ2_HK6g0SV8vvp-10" value="&lt;font style=&quot;font-size: 18px;&quot;&gt;&lt;span style=&quot;font-weight: normal;&quot;&gt;/playexpert&lt;/span&gt;&lt;/font&gt;" style="text;html=1;align=center;verticalAlign=middle;whiteSpace=wrap;rounded=0;fontStyle=1" parent="8SeHMaJ2_HK6g0SV8vvp-11" vertex="1">
          <mxGeometry x="5" y="120" width="110" height="30" as="geometry" />
        </mxCell>
        <mxCell id="8SeHMaJ2_HK6g0SV8vvp-12" value="" style="group" parent="8SeHMaJ2_HK6g0SV8vvp-73" vertex="1" connectable="0">
          <mxGeometry x="220" y="120" width="120" height="160" as="geometry" />
        </mxCell>
        <mxCell id="8SeHMaJ2_HK6g0SV8vvp-13" value="" style="rounded=0;whiteSpace=wrap;html=1;" parent="8SeHMaJ2_HK6g0SV8vvp-12" vertex="1">
          <mxGeometry y="30" width="120" height="130" as="geometry" />
        </mxCell>
        <mxCell id="8SeHMaJ2_HK6g0SV8vvp-14" value="&lt;font style=&quot;font-size: 18px;&quot;&gt;&lt;span style=&quot;font-weight: normal;&quot;&gt;PORT : 8001&lt;/span&gt;&lt;/font&gt;" style="text;html=1;align=center;verticalAlign=middle;whiteSpace=wrap;rounded=0;fontStyle=1" parent="8SeHMaJ2_HK6g0SV8vvp-12" vertex="1">
          <mxGeometry x="5" width="110" height="30" as="geometry" />
        </mxCell>
        <mxCell id="8SeHMaJ2_HK6g0SV8vvp-15" value="&lt;font style=&quot;font-size: 18px;&quot;&gt;&lt;span style=&quot;font-weight: normal;&quot;&gt;/value&lt;/span&gt;&lt;/font&gt;" style="text;html=1;align=center;verticalAlign=middle;whiteSpace=wrap;rounded=0;fontStyle=1" parent="8SeHMaJ2_HK6g0SV8vvp-12" vertex="1">
          <mxGeometry x="5" y="40" width="110" height="30" as="geometry" />
        </mxCell>
        <mxCell id="8SeHMaJ2_HK6g0SV8vvp-16" value="&lt;font style=&quot;font-size: 18px;&quot;&gt;&lt;span style=&quot;font-weight: normal;&quot;&gt;/kill&lt;/span&gt;&lt;/font&gt;" style="text;html=1;align=center;verticalAlign=middle;whiteSpace=wrap;rounded=0;fontStyle=1" parent="8SeHMaJ2_HK6g0SV8vvp-12" vertex="1">
          <mxGeometry x="5" y="80" width="110" height="30" as="geometry" />
        </mxCell>
        <mxCell id="8SeHMaJ2_HK6g0SV8vvp-17" value="&lt;font style=&quot;font-size: 18px;&quot;&gt;&lt;span style=&quot;font-weight: normal;&quot;&gt;/playexpert&lt;/span&gt;&lt;/font&gt;" style="text;html=1;align=center;verticalAlign=middle;whiteSpace=wrap;rounded=0;fontStyle=1" parent="8SeHMaJ2_HK6g0SV8vvp-12" vertex="1">
          <mxGeometry x="5" y="120" width="110" height="30" as="geometry" />
        </mxCell>
        <mxCell id="8SeHMaJ2_HK6g0SV8vvp-26" style="edgeStyle=orthogonalEdgeStyle;rounded=0;orthogonalLoop=1;jettySize=auto;html=1;entryX=0;entryY=0.5;entryDx=0;entryDy=0;dashed=1;dashPattern=8 8;endArrow=none;endFill=0;" parent="8SeHMaJ2_HK6g0SV8vvp-73" source="8SeHMaJ2_HK6g0SV8vvp-13" target="8SeHMaJ2_HK6g0SV8vvp-23" edge="1">
          <mxGeometry relative="1" as="geometry" />
        </mxCell>
        <mxCell id="8SeHMaJ2_HK6g0SV8vvp-19" value="" style="group" parent="8SeHMaJ2_HK6g0SV8vvp-73" vertex="1" connectable="0">
          <mxGeometry x="600" y="120" width="120" height="160" as="geometry" />
        </mxCell>
        <mxCell id="8SeHMaJ2_HK6g0SV8vvp-20" value="" style="rounded=0;whiteSpace=wrap;html=1;" parent="8SeHMaJ2_HK6g0SV8vvp-19" vertex="1">
          <mxGeometry y="30" width="120" height="130" as="geometry" />
        </mxCell>
        <mxCell id="8SeHMaJ2_HK6g0SV8vvp-21" value="&lt;font style=&quot;font-size: 18px;&quot;&gt;&lt;span style=&quot;font-weight: normal;&quot;&gt;PORT : N&lt;/span&gt;&lt;/font&gt;" style="text;html=1;align=center;verticalAlign=middle;whiteSpace=wrap;rounded=0;fontStyle=1" parent="8SeHMaJ2_HK6g0SV8vvp-19" vertex="1">
          <mxGeometry x="5" width="110" height="30" as="geometry" />
        </mxCell>
        <mxCell id="8SeHMaJ2_HK6g0SV8vvp-22" value="&lt;font style=&quot;font-size: 18px;&quot;&gt;&lt;span style=&quot;font-weight: normal;&quot;&gt;/value&lt;/span&gt;&lt;/font&gt;" style="text;html=1;align=center;verticalAlign=middle;whiteSpace=wrap;rounded=0;fontStyle=1" parent="8SeHMaJ2_HK6g0SV8vvp-19" vertex="1">
          <mxGeometry x="5" y="40" width="110" height="30" as="geometry" />
        </mxCell>
        <mxCell id="8SeHMaJ2_HK6g0SV8vvp-23" value="&lt;font style=&quot;font-size: 18px;&quot;&gt;&lt;span style=&quot;font-weight: normal;&quot;&gt;/kill&lt;/span&gt;&lt;/font&gt;" style="text;html=1;align=center;verticalAlign=middle;whiteSpace=wrap;rounded=0;fontStyle=1" parent="8SeHMaJ2_HK6g0SV8vvp-19" vertex="1">
          <mxGeometry x="5" y="80" width="110" height="30" as="geometry" />
        </mxCell>
        <mxCell id="8SeHMaJ2_HK6g0SV8vvp-24" value="&lt;font style=&quot;font-size: 18px;&quot;&gt;&lt;span style=&quot;font-weight: normal;&quot;&gt;/playexpert&lt;/span&gt;&lt;/font&gt;" style="text;html=1;align=center;verticalAlign=middle;whiteSpace=wrap;rounded=0;fontStyle=1" parent="8SeHMaJ2_HK6g0SV8vvp-19" vertex="1">
          <mxGeometry x="5" y="120" width="110" height="30" as="geometry" />
        </mxCell>
        <mxCell id="7u3aAnJBbPURBBEsKC7X-1" value="" style="group" parent="1" vertex="1" connectable="0">
          <mxGeometry x="-815" y="427" width="780" height="284" as="geometry" />
        </mxCell>
        <mxCell id="8SeHMaJ2_HK6g0SV8vvp-46" value="" style="rounded=0;whiteSpace=wrap;html=1;" parent="7u3aAnJBbPURBBEsKC7X-1" vertex="1">
          <mxGeometry y="30" width="780" height="254" as="geometry" />
        </mxCell>
        <mxCell id="8SeHMaJ2_HK6g0SV8vvp-47" value="&lt;font style=&quot;font-size: 27px;&quot;&gt;&lt;b&gt;PLAY&lt;/b&gt;&lt;/font&gt;" style="text;html=1;align=center;verticalAlign=middle;whiteSpace=wrap;rounded=0;" parent="7u3aAnJBbPURBBEsKC7X-1" vertex="1">
          <mxGeometry x="20" width="60" height="30" as="geometry" />
        </mxCell>
        <mxCell id="8SeHMaJ2_HK6g0SV8vvp-50" value="" style="group" parent="7u3aAnJBbPURBBEsKC7X-1" vertex="1" connectable="0">
          <mxGeometry x="429" y="73" width="254" height="160" as="geometry" />
        </mxCell>
        <mxCell id="8SeHMaJ2_HK6g0SV8vvp-51" value="" style="rounded=0;whiteSpace=wrap;html=1;" parent="8SeHMaJ2_HK6g0SV8vvp-50" vertex="1">
          <mxGeometry y="30" width="253.99999999999997" height="130" as="geometry" />
        </mxCell>
        <mxCell id="8SeHMaJ2_HK6g0SV8vvp-52" value="&lt;font style=&quot;font-size: 22px;&quot;&gt;CLIENT&lt;/font&gt;" style="text;html=1;align=center;verticalAlign=middle;whiteSpace=wrap;rounded=0;fontStyle=1" parent="8SeHMaJ2_HK6g0SV8vvp-50" vertex="1">
          <mxGeometry x="10.583333333333334" width="232.83333333333331" height="30" as="geometry" />
        </mxCell>
        <mxCell id="8SeHMaJ2_HK6g0SV8vvp-53" value="&lt;font style=&quot;font-size: 18px;&quot;&gt;&lt;span style=&quot;font-weight: normal;&quot;&gt;received values [n]&lt;/span&gt;&lt;/font&gt;" style="text;html=1;align=center;verticalAlign=middle;whiteSpace=wrap;rounded=0;fontStyle=1" parent="8SeHMaJ2_HK6g0SV8vvp-50" vertex="1">
          <mxGeometry x="10.583333333333334" y="45" width="232.83333333333331" height="30" as="geometry" />
        </mxCell>
        <mxCell id="8SeHMaJ2_HK6g0SV8vvp-54" value="&lt;span style=&quot;font-size: 18px; font-weight: 400;&quot;&gt;return network values&lt;/span&gt;" style="text;html=1;align=center;verticalAlign=middle;whiteSpace=wrap;rounded=0;fontStyle=1" parent="8SeHMaJ2_HK6g0SV8vvp-50" vertex="1">
          <mxGeometry x="10.583333333333334" y="114" width="232.83333333333331" height="30" as="geometry" />
        </mxCell>
        <mxCell id="8SeHMaJ2_HK6g0SV8vvp-96" value="&lt;font style=&quot;font-size: 18px;&quot;&gt;&lt;span style=&quot;font-weight: normal;&quot;&gt;counter algorithm&lt;/span&gt;&lt;/font&gt;" style="text;html=1;align=center;verticalAlign=middle;whiteSpace=wrap;rounded=0;fontStyle=1" parent="8SeHMaJ2_HK6g0SV8vvp-50" vertex="1">
          <mxGeometry x="10.583333333333314" y="80" width="232.83333333333331" height="30" as="geometry" />
        </mxCell>
        <mxCell id="8SeHMaJ2_HK6g0SV8vvp-70" value="" style="group" parent="7u3aAnJBbPURBBEsKC7X-1" vertex="1" connectable="0">
          <mxGeometry x="132" y="138" width="120" height="60" as="geometry" />
        </mxCell>
        <mxCell id="8SeHMaJ2_HK6g0SV8vvp-29" value="" style="rounded=0;whiteSpace=wrap;html=1;" parent="8SeHMaJ2_HK6g0SV8vvp-70" vertex="1">
          <mxGeometry width="120" height="60" as="geometry" />
        </mxCell>
        <mxCell id="8SeHMaJ2_HK6g0SV8vvp-30" value="&lt;font style=&quot;font-size: 22px;&quot;&gt;&lt;b style=&quot;&quot;&gt;AGENTS&lt;/b&gt;&lt;/font&gt;" style="text;html=1;align=center;verticalAlign=middle;whiteSpace=wrap;rounded=0;" parent="8SeHMaJ2_HK6g0SV8vvp-70" vertex="1">
          <mxGeometry x="30" y="15" width="60" height="30" as="geometry" />
        </mxCell>
        <mxCell id="8SeHMaJ2_HK6g0SV8vvp-72" style="edgeStyle=orthogonalEdgeStyle;rounded=0;orthogonalLoop=1;jettySize=auto;html=1;entryX=1;entryY=0.5;entryDx=0;entryDy=0;" parent="7u3aAnJBbPURBBEsKC7X-1" source="8SeHMaJ2_HK6g0SV8vvp-51" target="8SeHMaJ2_HK6g0SV8vvp-29" edge="1">
          <mxGeometry relative="1" as="geometry" />
        </mxCell>
        <mxCell id="8SeHMaJ2_HK6g0SV8vvp-85" value="&lt;font style=&quot;font-size: 18px;&quot;&gt;&lt;span style=&quot;font-weight: normal;&quot;&gt;GET /value&lt;/span&gt;&lt;/font&gt;" style="text;html=1;align=center;verticalAlign=middle;whiteSpace=wrap;rounded=0;fontStyle=1" parent="7u3aAnJBbPURBBEsKC7X-1" vertex="1">
          <mxGeometry x="282" y="138" width="117" height="30" as="geometry" />
        </mxCell>
        <mxCell id="7u3aAnJBbPURBBEsKC7X-2" value="" style="group" parent="1" vertex="1" connectable="0">
          <mxGeometry x="-815" y="744" width="780" height="284" as="geometry" />
        </mxCell>
        <mxCell id="8SeHMaJ2_HK6g0SV8vvp-74" value="" style="rounded=0;whiteSpace=wrap;html=1;" parent="7u3aAnJBbPURBBEsKC7X-2" vertex="1">
          <mxGeometry y="30" width="780" height="254" as="geometry" />
        </mxCell>
        <mxCell id="8SeHMaJ2_HK6g0SV8vvp-75" value="&lt;font style=&quot;font-size: 27px;&quot;&gt;&lt;b&gt;KILL&lt;/b&gt;&lt;/font&gt;" style="text;html=1;align=center;verticalAlign=middle;whiteSpace=wrap;rounded=0;" parent="7u3aAnJBbPURBBEsKC7X-2" vertex="1">
          <mxGeometry x="20" width="60" height="30" as="geometry" />
        </mxCell>
        <mxCell id="8SeHMaJ2_HK6g0SV8vvp-86" value="" style="group" parent="7u3aAnJBbPURBBEsKC7X-2" vertex="1" connectable="0">
          <mxGeometry x="447" y="101" width="182" height="93" as="geometry" />
        </mxCell>
        <mxCell id="8SeHMaJ2_HK6g0SV8vvp-87" value="" style="rounded=0;whiteSpace=wrap;html=1;" parent="8SeHMaJ2_HK6g0SV8vvp-86" vertex="1">
          <mxGeometry y="17.4375" width="182" height="75.5625" as="geometry" />
        </mxCell>
        <mxCell id="8SeHMaJ2_HK6g0SV8vvp-88" value="&lt;font style=&quot;font-size: 22px;&quot;&gt;AGENT id: n&lt;/font&gt;" style="text;html=1;align=center;verticalAlign=middle;whiteSpace=wrap;rounded=0;fontStyle=1" parent="8SeHMaJ2_HK6g0SV8vvp-86" vertex="1">
          <mxGeometry x="7.583333333333334" y="-8" width="166.83333333333334" height="17.4375" as="geometry" />
        </mxCell>
        <mxCell id="8SeHMaJ2_HK6g0SV8vvp-89" value="&lt;font style=&quot;font-size: 18px;&quot;&gt;&lt;span style=&quot;font-weight: normal;&quot;&gt;shutdown server&lt;/span&gt;&lt;/font&gt;" style="text;html=1;align=center;verticalAlign=middle;whiteSpace=wrap;rounded=0;fontStyle=1" parent="8SeHMaJ2_HK6g0SV8vvp-86" vertex="1">
          <mxGeometry x="7.583333333333334" y="46.505" width="166.83333333333334" height="17.4375" as="geometry" />
        </mxCell>
        <mxCell id="8SeHMaJ2_HK6g0SV8vvp-91" value="" style="group" parent="7u3aAnJBbPURBBEsKC7X-2" vertex="1" connectable="0">
          <mxGeometry x="151" y="126" width="120" height="60" as="geometry" />
        </mxCell>
        <mxCell id="8SeHMaJ2_HK6g0SV8vvp-92" value="" style="rounded=0;whiteSpace=wrap;html=1;" parent="8SeHMaJ2_HK6g0SV8vvp-91" vertex="1">
          <mxGeometry width="120" height="60" as="geometry" />
        </mxCell>
        <mxCell id="8SeHMaJ2_HK6g0SV8vvp-93" value="&lt;font style=&quot;font-size: 22px;&quot;&gt;&lt;b style=&quot;&quot;&gt;CLIENT&lt;/b&gt;&lt;/font&gt;" style="text;html=1;align=center;verticalAlign=middle;whiteSpace=wrap;rounded=0;" parent="8SeHMaJ2_HK6g0SV8vvp-91" vertex="1">
          <mxGeometry x="30" y="15" width="60" height="30" as="geometry" />
        </mxCell>
        <mxCell id="8SeHMaJ2_HK6g0SV8vvp-94" style="edgeStyle=orthogonalEdgeStyle;rounded=0;orthogonalLoop=1;jettySize=auto;html=1;entryX=1;entryY=0.5;entryDx=0;entryDy=0;startArrow=classic;startFill=1;endArrow=none;endFill=0;" parent="7u3aAnJBbPURBBEsKC7X-2" source="8SeHMaJ2_HK6g0SV8vvp-87" target="8SeHMaJ2_HK6g0SV8vvp-92" edge="1">
          <mxGeometry relative="1" as="geometry" />
        </mxCell>
        <mxCell id="8SeHMaJ2_HK6g0SV8vvp-95" value="&lt;font style=&quot;font-size: 18px;&quot;&gt;&lt;span style=&quot;font-weight: normal;&quot;&gt;/kill&lt;/span&gt;&lt;/font&gt;" style="text;html=1;align=center;verticalAlign=middle;whiteSpace=wrap;rounded=0;fontStyle=1" parent="7u3aAnJBbPURBBEsKC7X-2" vertex="1">
          <mxGeometry x="301" y="126" width="117" height="30" as="geometry" />
        </mxCell>
        <mxCell id="7u3aAnJBbPURBBEsKC7X-3" value="&lt;font style=&quot;font-size: 48px;&quot;&gt;&lt;b style=&quot;font-size: 48px;&quot;&gt;EXTEND&lt;/b&gt;&lt;/font&gt;" style="text;html=1;align=left;verticalAlign=middle;whiteSpace=wrap;rounded=0;fontSize=48;" parent="1" vertex="1">
          <mxGeometry x="316" y="46" width="60" height="30" as="geometry" />
        </mxCell>
        <mxCell id="7u3aAnJBbPURBBEsKC7X-4" value="" style="group" parent="1" vertex="1" connectable="0">
          <mxGeometry x="24" y="388" width="802" height="260" as="geometry" />
        </mxCell>
        <mxCell id="7u3aAnJBbPURBBEsKC7X-5" value="" style="rounded=0;whiteSpace=wrap;html=1;" parent="7u3aAnJBbPURBBEsKC7X-4" vertex="1">
          <mxGeometry y="38" width="802" height="222" as="geometry" />
        </mxCell>
        <mxCell id="7u3aAnJBbPURBBEsKC7X-6" style="edgeStyle=orthogonalEdgeStyle;rounded=0;orthogonalLoop=1;jettySize=auto;html=1;exitX=1;exitY=0.5;exitDx=0;exitDy=0;entryX=0;entryY=0.5;entryDx=0;entryDy=0;" parent="7u3aAnJBbPURBBEsKC7X-4" source="7u3aAnJBbPURBBEsKC7X-7" target="7u3aAnJBbPURBBEsKC7X-33" edge="1">
          <mxGeometry relative="1" as="geometry" />
        </mxCell>
        <mxCell id="7u3aAnJBbPURBBEsKC7X-7" value="" style="rounded=0;whiteSpace=wrap;html=1;" parent="7u3aAnJBbPURBBEsKC7X-4" vertex="1">
          <mxGeometry x="20" y="53.5" width="284" height="191" as="geometry" />
        </mxCell>
        <mxCell id="7u3aAnJBbPURBBEsKC7X-8" value="&lt;font style=&quot;font-size: 20px;&quot;&gt;New Agents&lt;/font&gt;" style="text;html=1;align=center;verticalAlign=middle;whiteSpace=wrap;rounded=0;fontSize=14;" parent="7u3aAnJBbPURBBEsKC7X-4" vertex="1">
          <mxGeometry x="102.5" y="69" width="112.5" height="30" as="geometry" />
        </mxCell>
        <mxCell id="7u3aAnJBbPURBBEsKC7X-9" value="" style="group;fontColor=#FF0000;" parent="7u3aAnJBbPURBBEsKC7X-4" vertex="1" connectable="0">
          <mxGeometry x="48" y="111" width="51" height="51" as="geometry" />
        </mxCell>
        <mxCell id="7u3aAnJBbPURBBEsKC7X-10" value="" style="ellipse;whiteSpace=wrap;html=1;aspect=fixed;fontColor=#FF0000;strokeColor=#FF0000;strokeWidth=2;" parent="7u3aAnJBbPURBBEsKC7X-9" vertex="1">
          <mxGeometry width="51" height="51" as="geometry" />
        </mxCell>
        <mxCell id="7u3aAnJBbPURBBEsKC7X-11" value="&lt;font style=&quot;font-size: 31px;&quot;&gt;L&lt;/font&gt;" style="text;html=1;align=center;verticalAlign=middle;whiteSpace=wrap;rounded=0;fontSize=31;fontColor=#FF0000;" parent="7u3aAnJBbPURBBEsKC7X-9" vertex="1">
          <mxGeometry x="15.75" y="15.25" width="19.5" height="20.5" as="geometry" />
        </mxCell>
        <mxCell id="7u3aAnJBbPURBBEsKC7X-12" value="" style="group" parent="7u3aAnJBbPURBBEsKC7X-4" vertex="1" connectable="0">
          <mxGeometry x="164" y="180" width="51" height="51" as="geometry" />
        </mxCell>
        <mxCell id="7u3aAnJBbPURBBEsKC7X-13" value="" style="ellipse;whiteSpace=wrap;html=1;aspect=fixed;fontColor=#97D077;strokeColor=#FF0000;strokeWidth=2;" parent="7u3aAnJBbPURBBEsKC7X-12" vertex="1">
          <mxGeometry width="51" height="51" as="geometry" />
        </mxCell>
        <mxCell id="7u3aAnJBbPURBBEsKC7X-14" value="&lt;font color=&quot;#ff0000&quot; style=&quot;font-size: 31px;&quot;&gt;L&lt;/font&gt;" style="text;html=1;align=center;verticalAlign=middle;whiteSpace=wrap;rounded=0;fontSize=31;fontColor=#97D077;" parent="7u3aAnJBbPURBBEsKC7X-12" vertex="1">
          <mxGeometry x="15.75" y="15.25" width="19.5" height="20.5" as="geometry" />
        </mxCell>
        <mxCell id="7u3aAnJBbPURBBEsKC7X-15" value="" style="group" parent="7u3aAnJBbPURBBEsKC7X-4" vertex="1" connectable="0">
          <mxGeometry x="48" y="180" width="51" height="51" as="geometry" />
        </mxCell>
        <mxCell id="7u3aAnJBbPURBBEsKC7X-16" value="" style="ellipse;whiteSpace=wrap;html=1;aspect=fixed;fontColor=#97D077;strokeColor=#FF0000;strokeWidth=2;" parent="7u3aAnJBbPURBBEsKC7X-15" vertex="1">
          <mxGeometry width="51" height="51" as="geometry" />
        </mxCell>
        <mxCell id="7u3aAnJBbPURBBEsKC7X-17" value="&lt;font style=&quot;font-size: 31px;&quot;&gt;L&lt;/font&gt;" style="text;html=1;align=center;verticalAlign=middle;whiteSpace=wrap;rounded=0;fontSize=31;fontColor=#FF0000;" parent="7u3aAnJBbPURBBEsKC7X-15" vertex="1">
          <mxGeometry x="15.75" y="15.25" width="19.5" height="20.5" as="geometry" />
        </mxCell>
        <mxCell id="7u3aAnJBbPURBBEsKC7X-18" value="" style="group" parent="7u3aAnJBbPURBBEsKC7X-4" vertex="1" connectable="0">
          <mxGeometry x="106" y="112" width="51" height="51" as="geometry" />
        </mxCell>
        <mxCell id="7u3aAnJBbPURBBEsKC7X-19" value="" style="ellipse;whiteSpace=wrap;html=1;aspect=fixed;fontColor=#97D077;strokeColor=#FF0000;strokeWidth=2;" parent="7u3aAnJBbPURBBEsKC7X-18" vertex="1">
          <mxGeometry width="51" height="51" as="geometry" />
        </mxCell>
        <mxCell id="7u3aAnJBbPURBBEsKC7X-20" value="&lt;font style=&quot;font-size: 31px;&quot;&gt;L&lt;/font&gt;" style="text;html=1;align=center;verticalAlign=middle;whiteSpace=wrap;rounded=0;fontSize=31;fontColor=#FF0000;" parent="7u3aAnJBbPURBBEsKC7X-18" vertex="1">
          <mxGeometry x="15.75" y="15.25" width="19.5" height="20.5" as="geometry" />
        </mxCell>
        <mxCell id="7u3aAnJBbPURBBEsKC7X-21" value="" style="group" parent="7u3aAnJBbPURBBEsKC7X-4" vertex="1" connectable="0">
          <mxGeometry x="106" y="180" width="51" height="51" as="geometry" />
        </mxCell>
        <mxCell id="7u3aAnJBbPURBBEsKC7X-22" value="" style="ellipse;whiteSpace=wrap;html=1;aspect=fixed;fontColor=#97D077;strokeColor=#FF0000;strokeWidth=2;" parent="7u3aAnJBbPURBBEsKC7X-21" vertex="1">
          <mxGeometry width="51" height="51" as="geometry" />
        </mxCell>
        <mxCell id="7u3aAnJBbPURBBEsKC7X-23" value="&lt;font color=&quot;#ff0000&quot; style=&quot;font-size: 31px;&quot;&gt;L&lt;/font&gt;" style="text;html=1;align=center;verticalAlign=middle;whiteSpace=wrap;rounded=0;fontSize=31;fontColor=#97D077;" parent="7u3aAnJBbPURBBEsKC7X-21" vertex="1">
          <mxGeometry x="15.75" y="15.25" width="19.5" height="20.5" as="geometry" />
        </mxCell>
        <mxCell id="7u3aAnJBbPURBBEsKC7X-24" value="" style="group" parent="7u3aAnJBbPURBBEsKC7X-4" vertex="1" connectable="0">
          <mxGeometry x="164" y="112" width="51" height="51" as="geometry" />
        </mxCell>
        <mxCell id="7u3aAnJBbPURBBEsKC7X-25" value="" style="ellipse;whiteSpace=wrap;html=1;aspect=fixed;fontColor=#97D077;strokeColor=#FF0000;strokeWidth=2;" parent="7u3aAnJBbPURBBEsKC7X-24" vertex="1">
          <mxGeometry width="51" height="51" as="geometry" />
        </mxCell>
        <mxCell id="7u3aAnJBbPURBBEsKC7X-26" value="&lt;font color=&quot;#ff0000&quot; style=&quot;font-size: 31px;&quot;&gt;L&lt;/font&gt;" style="text;html=1;align=center;verticalAlign=middle;whiteSpace=wrap;rounded=0;fontSize=31;fontColor=#97D077;" parent="7u3aAnJBbPURBBEsKC7X-24" vertex="1">
          <mxGeometry x="15.75" y="15.25" width="19.5" height="20.5" as="geometry" />
        </mxCell>
        <mxCell id="7u3aAnJBbPURBBEsKC7X-27" value="" style="group" parent="7u3aAnJBbPURBBEsKC7X-4" vertex="1" connectable="0">
          <mxGeometry x="222" y="114" width="51" height="51" as="geometry" />
        </mxCell>
        <mxCell id="7u3aAnJBbPURBBEsKC7X-28" value="" style="ellipse;whiteSpace=wrap;html=1;aspect=fixed;fontColor=#97D077;strokeColor=#FF0000;strokeWidth=2;" parent="7u3aAnJBbPURBBEsKC7X-27" vertex="1">
          <mxGeometry width="51" height="51" as="geometry" />
        </mxCell>
        <mxCell id="7u3aAnJBbPURBBEsKC7X-29" value="&lt;font style=&quot;font-size: 31px;&quot;&gt;L&lt;/font&gt;" style="text;html=1;align=center;verticalAlign=middle;whiteSpace=wrap;rounded=0;fontSize=31;fontColor=#FF0000;" parent="7u3aAnJBbPURBBEsKC7X-27" vertex="1">
          <mxGeometry x="15.75" y="15.25" width="19.5" height="20.5" as="geometry" />
        </mxCell>
        <mxCell id="7u3aAnJBbPURBBEsKC7X-30" value="" style="group" parent="7u3aAnJBbPURBBEsKC7X-4" vertex="1" connectable="0">
          <mxGeometry x="222" y="180" width="51" height="51" as="geometry" />
        </mxCell>
        <mxCell id="7u3aAnJBbPURBBEsKC7X-31" value="" style="ellipse;whiteSpace=wrap;html=1;aspect=fixed;fontColor=#FF0000;strokeColor=#FF0000;strokeWidth=2;" parent="7u3aAnJBbPURBBEsKC7X-30" vertex="1">
          <mxGeometry width="51" height="51" as="geometry" />
        </mxCell>
        <mxCell id="7u3aAnJBbPURBBEsKC7X-32" value="&lt;font style=&quot;font-size: 31px;&quot;&gt;L&lt;/font&gt;" style="text;html=1;align=center;verticalAlign=middle;whiteSpace=wrap;rounded=0;fontSize=31;fontColor=#FF0000;" parent="7u3aAnJBbPURBBEsKC7X-30" vertex="1">
          <mxGeometry x="15.75" y="15.25" width="19.5" height="20.5" as="geometry" />
        </mxCell>
        <mxCell id="7u3aAnJBbPURBBEsKC7X-33" value="" style="rounded=0;whiteSpace=wrap;html=1;" parent="7u3aAnJBbPURBBEsKC7X-4" vertex="1">
          <mxGeometry x="464" y="53.5" width="322" height="191" as="geometry" />
        </mxCell>
        <mxCell id="7u3aAnJBbPURBBEsKC7X-34" value="&lt;font style=&quot;font-size: 20px;&quot;&gt;Agents&lt;/font&gt;" style="text;html=1;align=center;verticalAlign=middle;whiteSpace=wrap;rounded=0;fontSize=14;" parent="7u3aAnJBbPURBBEsKC7X-4" vertex="1">
          <mxGeometry x="567" y="69" width="112.5" height="30" as="geometry" />
        </mxCell>
        <mxCell id="7u3aAnJBbPURBBEsKC7X-35" value="" style="ellipse;whiteSpace=wrap;html=1;aspect=fixed;fontColor=#97D077;strokeColor=#ffffff;strokeWidth=2;" parent="7u3aAnJBbPURBBEsKC7X-4" vertex="1">
          <mxGeometry x="510" y="111" width="51" height="51" as="geometry" />
        </mxCell>
        <mxCell id="7u3aAnJBbPURBBEsKC7X-36" value="" style="ellipse;whiteSpace=wrap;html=1;aspect=fixed;fontColor=#97D077;strokeColor=#ffffff;strokeWidth=2;" parent="7u3aAnJBbPURBBEsKC7X-4" vertex="1">
          <mxGeometry x="567" y="111" width="51" height="51" as="geometry" />
        </mxCell>
        <mxCell id="7u3aAnJBbPURBBEsKC7X-37" value="" style="ellipse;whiteSpace=wrap;html=1;aspect=fixed;fontColor=#97D077;strokeColor=#ffffff;strokeWidth=2;" parent="7u3aAnJBbPURBBEsKC7X-4" vertex="1">
          <mxGeometry x="624" y="114" width="51" height="51" as="geometry" />
        </mxCell>
        <mxCell id="7u3aAnJBbPURBBEsKC7X-38" value="" style="ellipse;whiteSpace=wrap;html=1;aspect=fixed;fontColor=#97D077;strokeColor=#ffffff;strokeWidth=2;" parent="7u3aAnJBbPURBBEsKC7X-4" vertex="1">
          <mxGeometry x="679.5" y="114" width="51" height="51" as="geometry" />
        </mxCell>
        <mxCell id="7u3aAnJBbPURBBEsKC7X-39" value="" style="ellipse;whiteSpace=wrap;html=1;aspect=fixed;fontColor=#97D077;strokeColor=#ffffff;strokeWidth=2;" parent="7u3aAnJBbPURBBEsKC7X-4" vertex="1">
          <mxGeometry x="510" y="177" width="51" height="51" as="geometry" />
        </mxCell>
        <mxCell id="7u3aAnJBbPURBBEsKC7X-40" value="" style="ellipse;whiteSpace=wrap;html=1;aspect=fixed;fontColor=#97D077;strokeColor=#ffffff;strokeWidth=2;" parent="7u3aAnJBbPURBBEsKC7X-4" vertex="1">
          <mxGeometry x="567" y="177" width="51" height="51" as="geometry" />
        </mxCell>
        <mxCell id="7u3aAnJBbPURBBEsKC7X-41" value="" style="ellipse;whiteSpace=wrap;html=1;aspect=fixed;fontColor=#97D077;strokeColor=#ffffff;strokeWidth=2;" parent="7u3aAnJBbPURBBEsKC7X-4" vertex="1">
          <mxGeometry x="624" y="180" width="51" height="51" as="geometry" />
        </mxCell>
        <mxCell id="7u3aAnJBbPURBBEsKC7X-42" value="" style="ellipse;whiteSpace=wrap;html=1;aspect=fixed;fontColor=#97D077;strokeColor=#ffffff;strokeWidth=2;" parent="7u3aAnJBbPURBBEsKC7X-4" vertex="1">
          <mxGeometry x="679.5" y="180" width="51" height="51" as="geometry" />
        </mxCell>
        <mxCell id="7u3aAnJBbPURBBEsKC7X-43" value="&lt;font style=&quot;font-size: 27px;&quot;&gt;Different value&lt;/font&gt;" style="text;html=1;align=left;verticalAlign=middle;whiteSpace=wrap;rounded=0;" parent="7u3aAnJBbPURBBEsKC7X-4" vertex="1">
          <mxGeometry x="4" width="206" height="30" as="geometry" />
        </mxCell>
        <mxCell id="7u3aAnJBbPURBBEsKC7X-44" value="" style="group" parent="1" vertex="1" connectable="0">
          <mxGeometry x="24" y="109" width="802" height="260" as="geometry" />
        </mxCell>
        <mxCell id="7u3aAnJBbPURBBEsKC7X-45" value="" style="rounded=0;whiteSpace=wrap;html=1;" parent="7u3aAnJBbPURBBEsKC7X-44" vertex="1">
          <mxGeometry y="38" width="802" height="222" as="geometry" />
        </mxCell>
        <mxCell id="7u3aAnJBbPURBBEsKC7X-46" style="edgeStyle=orthogonalEdgeStyle;rounded=0;orthogonalLoop=1;jettySize=auto;html=1;exitX=1;exitY=0.5;exitDx=0;exitDy=0;entryX=0;entryY=0.5;entryDx=0;entryDy=0;" parent="7u3aAnJBbPURBBEsKC7X-44" source="7u3aAnJBbPURBBEsKC7X-47" target="7u3aAnJBbPURBBEsKC7X-73" edge="1">
          <mxGeometry relative="1" as="geometry" />
        </mxCell>
        <mxCell id="7u3aAnJBbPURBBEsKC7X-47" value="" style="rounded=0;whiteSpace=wrap;html=1;" parent="7u3aAnJBbPURBBEsKC7X-44" vertex="1">
          <mxGeometry x="20" y="53.5" width="284" height="191" as="geometry" />
        </mxCell>
        <mxCell id="7u3aAnJBbPURBBEsKC7X-48" value="&lt;font style=&quot;font-size: 20px;&quot;&gt;New Agents&lt;/font&gt;" style="text;html=1;align=center;verticalAlign=middle;whiteSpace=wrap;rounded=0;fontSize=14;" parent="7u3aAnJBbPURBBEsKC7X-44" vertex="1">
          <mxGeometry x="102.5" y="69" width="112.5" height="30" as="geometry" />
        </mxCell>
        <mxCell id="7u3aAnJBbPURBBEsKC7X-49" value="" style="group" parent="7u3aAnJBbPURBBEsKC7X-44" vertex="1" connectable="0">
          <mxGeometry x="48" y="111" width="51" height="51" as="geometry" />
        </mxCell>
        <mxCell id="7u3aAnJBbPURBBEsKC7X-50" value="" style="ellipse;whiteSpace=wrap;html=1;aspect=fixed;fontColor=#97D077;strokeColor=#97D077;strokeWidth=2;" parent="7u3aAnJBbPURBBEsKC7X-49" vertex="1">
          <mxGeometry width="51" height="51" as="geometry" />
        </mxCell>
        <mxCell id="7u3aAnJBbPURBBEsKC7X-51" value="&lt;font style=&quot;font-size: 31px;&quot;&gt;T&lt;/font&gt;" style="text;html=1;align=center;verticalAlign=middle;whiteSpace=wrap;rounded=0;fontSize=31;fontColor=#97D077;" parent="7u3aAnJBbPURBBEsKC7X-49" vertex="1">
          <mxGeometry x="15.75" y="15.25" width="19.5" height="20.5" as="geometry" />
        </mxCell>
        <mxCell id="7u3aAnJBbPURBBEsKC7X-52" value="" style="group" parent="7u3aAnJBbPURBBEsKC7X-44" vertex="1" connectable="0">
          <mxGeometry x="164" y="180" width="51" height="51" as="geometry" />
        </mxCell>
        <mxCell id="7u3aAnJBbPURBBEsKC7X-53" value="" style="ellipse;whiteSpace=wrap;html=1;aspect=fixed;fontColor=#97D077;strokeColor=#FF0000;strokeWidth=2;" parent="7u3aAnJBbPURBBEsKC7X-52" vertex="1">
          <mxGeometry width="51" height="51" as="geometry" />
        </mxCell>
        <mxCell id="7u3aAnJBbPURBBEsKC7X-54" value="&lt;font color=&quot;#ff0000&quot; style=&quot;font-size: 31px;&quot;&gt;L&lt;/font&gt;" style="text;html=1;align=center;verticalAlign=middle;whiteSpace=wrap;rounded=0;fontSize=31;fontColor=#97D077;" parent="7u3aAnJBbPURBBEsKC7X-52" vertex="1">
          <mxGeometry x="15.75" y="15.25" width="19.5" height="20.5" as="geometry" />
        </mxCell>
        <mxCell id="7u3aAnJBbPURBBEsKC7X-55" value="" style="group" parent="7u3aAnJBbPURBBEsKC7X-44" vertex="1" connectable="0">
          <mxGeometry x="48" y="180" width="51" height="51" as="geometry" />
        </mxCell>
        <mxCell id="7u3aAnJBbPURBBEsKC7X-56" value="" style="ellipse;whiteSpace=wrap;html=1;aspect=fixed;fontColor=#97D077;strokeColor=#FF0000;strokeWidth=2;" parent="7u3aAnJBbPURBBEsKC7X-55" vertex="1">
          <mxGeometry width="51" height="51" as="geometry" />
        </mxCell>
        <mxCell id="7u3aAnJBbPURBBEsKC7X-57" value="&lt;font style=&quot;font-size: 31px;&quot;&gt;L&lt;/font&gt;" style="text;html=1;align=center;verticalAlign=middle;whiteSpace=wrap;rounded=0;fontSize=31;fontColor=#FF0000;" parent="7u3aAnJBbPURBBEsKC7X-55" vertex="1">
          <mxGeometry x="15.75" y="15.25" width="19.5" height="20.5" as="geometry" />
        </mxCell>
        <mxCell id="7u3aAnJBbPURBBEsKC7X-58" value="" style="group" parent="7u3aAnJBbPURBBEsKC7X-44" vertex="1" connectable="0">
          <mxGeometry x="106" y="112" width="51" height="51" as="geometry" />
        </mxCell>
        <mxCell id="7u3aAnJBbPURBBEsKC7X-59" value="" style="ellipse;whiteSpace=wrap;html=1;aspect=fixed;fontColor=#97D077;strokeColor=#97D077;strokeWidth=2;" parent="7u3aAnJBbPURBBEsKC7X-58" vertex="1">
          <mxGeometry width="51" height="51" as="geometry" />
        </mxCell>
        <mxCell id="7u3aAnJBbPURBBEsKC7X-60" value="&lt;font style=&quot;font-size: 31px;&quot;&gt;T&lt;/font&gt;" style="text;html=1;align=center;verticalAlign=middle;whiteSpace=wrap;rounded=0;fontSize=31;fontColor=#97D077;" parent="7u3aAnJBbPURBBEsKC7X-58" vertex="1">
          <mxGeometry x="15.75" y="15.25" width="19.5" height="20.5" as="geometry" />
        </mxCell>
        <mxCell id="7u3aAnJBbPURBBEsKC7X-61" value="" style="group" parent="7u3aAnJBbPURBBEsKC7X-44" vertex="1" connectable="0">
          <mxGeometry x="106" y="180" width="51" height="51" as="geometry" />
        </mxCell>
        <mxCell id="7u3aAnJBbPURBBEsKC7X-62" value="" style="ellipse;whiteSpace=wrap;html=1;aspect=fixed;fontColor=#97D077;strokeColor=#97D077;strokeWidth=2;" parent="7u3aAnJBbPURBBEsKC7X-61" vertex="1">
          <mxGeometry width="51" height="51" as="geometry" />
        </mxCell>
        <mxCell id="7u3aAnJBbPURBBEsKC7X-63" value="&lt;font style=&quot;font-size: 31px;&quot;&gt;T&lt;/font&gt;" style="text;html=1;align=center;verticalAlign=middle;whiteSpace=wrap;rounded=0;fontSize=31;fontColor=#97D077;" parent="7u3aAnJBbPURBBEsKC7X-61" vertex="1">
          <mxGeometry x="15.75" y="15.25" width="19.5" height="20.5" as="geometry" />
        </mxCell>
        <mxCell id="7u3aAnJBbPURBBEsKC7X-64" value="" style="group" parent="7u3aAnJBbPURBBEsKC7X-44" vertex="1" connectable="0">
          <mxGeometry x="164" y="112" width="51" height="51" as="geometry" />
        </mxCell>
        <mxCell id="7u3aAnJBbPURBBEsKC7X-65" value="" style="ellipse;whiteSpace=wrap;html=1;aspect=fixed;fontColor=#97D077;strokeColor=#97D077;strokeWidth=2;" parent="7u3aAnJBbPURBBEsKC7X-64" vertex="1">
          <mxGeometry width="51" height="51" as="geometry" />
        </mxCell>
        <mxCell id="7u3aAnJBbPURBBEsKC7X-66" value="&lt;font style=&quot;font-size: 31px;&quot;&gt;T&lt;/font&gt;" style="text;html=1;align=center;verticalAlign=middle;whiteSpace=wrap;rounded=0;fontSize=31;fontColor=#97D077;" parent="7u3aAnJBbPURBBEsKC7X-64" vertex="1">
          <mxGeometry x="15.75" y="15.25" width="19.5" height="20.5" as="geometry" />
        </mxCell>
        <mxCell id="7u3aAnJBbPURBBEsKC7X-67" value="" style="group" parent="7u3aAnJBbPURBBEsKC7X-44" vertex="1" connectable="0">
          <mxGeometry x="222" y="114" width="51" height="51" as="geometry" />
        </mxCell>
        <mxCell id="7u3aAnJBbPURBBEsKC7X-68" value="" style="ellipse;whiteSpace=wrap;html=1;aspect=fixed;fontColor=#97D077;strokeColor=#97D077;strokeWidth=2;" parent="7u3aAnJBbPURBBEsKC7X-67" vertex="1">
          <mxGeometry width="51" height="51" as="geometry" />
        </mxCell>
        <mxCell id="7u3aAnJBbPURBBEsKC7X-69" value="&lt;font style=&quot;font-size: 31px;&quot;&gt;T&lt;/font&gt;" style="text;html=1;align=center;verticalAlign=middle;whiteSpace=wrap;rounded=0;fontSize=31;fontColor=#97D077;" parent="7u3aAnJBbPURBBEsKC7X-67" vertex="1">
          <mxGeometry x="15.75" y="15.25" width="19.5" height="20.5" as="geometry" />
        </mxCell>
        <mxCell id="7u3aAnJBbPURBBEsKC7X-70" value="" style="group" parent="7u3aAnJBbPURBBEsKC7X-44" vertex="1" connectable="0">
          <mxGeometry x="222" y="180" width="51" height="51" as="geometry" />
        </mxCell>
        <mxCell id="7u3aAnJBbPURBBEsKC7X-71" value="" style="ellipse;whiteSpace=wrap;html=1;aspect=fixed;fontColor=#97D077;strokeColor=#97D077;strokeWidth=2;" parent="7u3aAnJBbPURBBEsKC7X-70" vertex="1">
          <mxGeometry width="51" height="51" as="geometry" />
        </mxCell>
        <mxCell id="7u3aAnJBbPURBBEsKC7X-72" value="&lt;font style=&quot;font-size: 31px;&quot;&gt;T&lt;/font&gt;" style="text;html=1;align=center;verticalAlign=middle;whiteSpace=wrap;rounded=0;fontSize=31;fontColor=#97D077;" parent="7u3aAnJBbPURBBEsKC7X-70" vertex="1">
          <mxGeometry x="15.75" y="15.25" width="19.5" height="20.5" as="geometry" />
        </mxCell>
        <mxCell id="7u3aAnJBbPURBBEsKC7X-73" value="" style="rounded=0;whiteSpace=wrap;html=1;" parent="7u3aAnJBbPURBBEsKC7X-44" vertex="1">
          <mxGeometry x="464" y="53.5" width="322" height="191" as="geometry" />
        </mxCell>
        <mxCell id="7u3aAnJBbPURBBEsKC7X-74" value="&lt;font style=&quot;font-size: 20px;&quot;&gt;Agents&lt;/font&gt;" style="text;html=1;align=center;verticalAlign=middle;whiteSpace=wrap;rounded=0;fontSize=14;" parent="7u3aAnJBbPURBBEsKC7X-44" vertex="1">
          <mxGeometry x="567" y="69" width="112.5" height="30" as="geometry" />
        </mxCell>
        <mxCell id="7u3aAnJBbPURBBEsKC7X-75" value="" style="ellipse;whiteSpace=wrap;html=1;aspect=fixed;fontColor=#97D077;strokeColor=#ffffff;strokeWidth=2;" parent="7u3aAnJBbPURBBEsKC7X-44" vertex="1">
          <mxGeometry x="510" y="111" width="51" height="51" as="geometry" />
        </mxCell>
        <mxCell id="7u3aAnJBbPURBBEsKC7X-76" value="" style="ellipse;whiteSpace=wrap;html=1;aspect=fixed;fontColor=#97D077;strokeColor=#ffffff;strokeWidth=2;" parent="7u3aAnJBbPURBBEsKC7X-44" vertex="1">
          <mxGeometry x="567" y="111" width="51" height="51" as="geometry" />
        </mxCell>
        <mxCell id="7u3aAnJBbPURBBEsKC7X-77" value="" style="ellipse;whiteSpace=wrap;html=1;aspect=fixed;fontColor=#97D077;strokeColor=#ffffff;strokeWidth=2;" parent="7u3aAnJBbPURBBEsKC7X-44" vertex="1">
          <mxGeometry x="624" y="114" width="51" height="51" as="geometry" />
        </mxCell>
        <mxCell id="7u3aAnJBbPURBBEsKC7X-78" value="" style="ellipse;whiteSpace=wrap;html=1;aspect=fixed;fontColor=#97D077;strokeColor=#ffffff;strokeWidth=2;" parent="7u3aAnJBbPURBBEsKC7X-44" vertex="1">
          <mxGeometry x="679.5" y="114" width="51" height="51" as="geometry" />
        </mxCell>
        <mxCell id="7u3aAnJBbPURBBEsKC7X-79" value="" style="ellipse;whiteSpace=wrap;html=1;aspect=fixed;fontColor=#97D077;strokeColor=#ffffff;strokeWidth=2;" parent="7u3aAnJBbPURBBEsKC7X-44" vertex="1">
          <mxGeometry x="510" y="177" width="51" height="51" as="geometry" />
        </mxCell>
        <mxCell id="7u3aAnJBbPURBBEsKC7X-80" value="" style="ellipse;whiteSpace=wrap;html=1;aspect=fixed;fontColor=#97D077;strokeColor=#ffffff;strokeWidth=2;" parent="7u3aAnJBbPURBBEsKC7X-44" vertex="1">
          <mxGeometry x="567" y="177" width="51" height="51" as="geometry" />
        </mxCell>
        <mxCell id="7u3aAnJBbPURBBEsKC7X-81" value="" style="ellipse;whiteSpace=wrap;html=1;aspect=fixed;fontColor=#97D077;strokeColor=#ffffff;strokeWidth=2;" parent="7u3aAnJBbPURBBEsKC7X-44" vertex="1">
          <mxGeometry x="624" y="180" width="51" height="51" as="geometry" />
        </mxCell>
        <mxCell id="7u3aAnJBbPURBBEsKC7X-82" value="" style="ellipse;whiteSpace=wrap;html=1;aspect=fixed;fontColor=#97D077;strokeColor=#ffffff;strokeWidth=2;" parent="7u3aAnJBbPURBBEsKC7X-44" vertex="1">
          <mxGeometry x="679.5" y="180" width="51" height="51" as="geometry" />
        </mxCell>
        <mxCell id="7u3aAnJBbPURBBEsKC7X-83" value="&lt;font style=&quot;font-size: 27px;&quot;&gt;Same value&lt;/font&gt;" style="text;html=1;align=left;verticalAlign=middle;whiteSpace=wrap;rounded=0;" parent="7u3aAnJBbPURBBEsKC7X-44" vertex="1">
          <mxGeometry x="4" width="170" height="30" as="geometry" />
        </mxCell>
        <mxCell id="7u3aAnJBbPURBBEsKC7X-84" value="" style="rounded=0;whiteSpace=wrap;html=1;" parent="1" vertex="1">
          <mxGeometry x="24" y="710" width="802" height="318" as="geometry" />
        </mxCell>
        <mxCell id="7u3aAnJBbPURBBEsKC7X-85" style="edgeStyle=orthogonalEdgeStyle;rounded=0;orthogonalLoop=1;jettySize=auto;html=1;exitX=1;exitY=0.5;exitDx=0;exitDy=0;entryX=0;entryY=0.5;entryDx=0;entryDy=0;" parent="1" source="7u3aAnJBbPURBBEsKC7X-96" target="7u3aAnJBbPURBBEsKC7X-86" edge="1">
          <mxGeometry relative="1" as="geometry" />
        </mxCell>
        <mxCell id="7u3aAnJBbPURBBEsKC7X-86" value="" style="rounded=0;whiteSpace=wrap;html=1;" parent="1" vertex="1">
          <mxGeometry x="488" y="725.5" width="322" height="282.5" as="geometry" />
        </mxCell>
        <mxCell id="7u3aAnJBbPURBBEsKC7X-87" value="&lt;font style=&quot;font-size: 20px;&quot;&gt;Agents&lt;/font&gt;" style="text;html=1;align=center;verticalAlign=middle;whiteSpace=wrap;rounded=0;fontSize=14;" parent="1" vertex="1">
          <mxGeometry x="591" y="741" width="112.5" height="30" as="geometry" />
        </mxCell>
        <mxCell id="7u3aAnJBbPURBBEsKC7X-88" value="&lt;font style=&quot;font-size: 27px;&quot;&gt;Update values&lt;/font&gt;" style="text;html=1;align=left;verticalAlign=middle;whiteSpace=wrap;rounded=0;" parent="1" vertex="1">
          <mxGeometry x="28" y="672" width="187" height="30" as="geometry" />
        </mxCell>
        <mxCell id="7u3aAnJBbPURBBEsKC7X-89" value="" style="rounded=0;whiteSpace=wrap;html=1;" parent="1" vertex="1">
          <mxGeometry x="530" y="779.5" width="245" height="60" as="geometry" />
        </mxCell>
        <mxCell id="7u3aAnJBbPURBBEsKC7X-90" value="" style="ellipse;whiteSpace=wrap;html=1;aspect=fixed;fontColor=#97D077;strokeColor=#ffffff;strokeWidth=2;" parent="1" vertex="1">
          <mxGeometry x="534" y="783" width="51" height="51" as="geometry" />
        </mxCell>
        <mxCell id="7u3aAnJBbPURBBEsKC7X-91" value="&lt;font style=&quot;font-size: 20px;&quot;&gt;/update_value&lt;/font&gt;" style="text;html=1;align=center;verticalAlign=middle;whiteSpace=wrap;rounded=0;fontSize=14;" parent="1" vertex="1">
          <mxGeometry x="629" y="793.5" width="112.5" height="30" as="geometry" />
        </mxCell>
        <mxCell id="7u3aAnJBbPURBBEsKC7X-92" value="" style="rounded=0;whiteSpace=wrap;html=1;" parent="1" vertex="1">
          <mxGeometry x="530" y="911" width="245" height="60" as="geometry" />
        </mxCell>
        <mxCell id="7u3aAnJBbPURBBEsKC7X-93" value="" style="ellipse;whiteSpace=wrap;html=1;aspect=fixed;fontColor=#97D077;strokeColor=#ffffff;strokeWidth=2;" parent="1" vertex="1">
          <mxGeometry x="534" y="914.5" width="51" height="51" as="geometry" />
        </mxCell>
        <mxCell id="7u3aAnJBbPURBBEsKC7X-94" value="&lt;font style=&quot;font-size: 20px;&quot;&gt;/update_value&lt;/font&gt;" style="text;html=1;align=center;verticalAlign=middle;whiteSpace=wrap;rounded=0;fontSize=14;" parent="1" vertex="1">
          <mxGeometry x="629" y="925" width="112.5" height="30" as="geometry" />
        </mxCell>
        <mxCell id="7u3aAnJBbPURBBEsKC7X-95" value="" style="group" parent="1" vertex="1" connectable="0">
          <mxGeometry x="45" y="767" width="284" height="191" as="geometry" />
        </mxCell>
        <mxCell id="7u3aAnJBbPURBBEsKC7X-96" value="" style="rounded=0;whiteSpace=wrap;html=1;" parent="7u3aAnJBbPURBBEsKC7X-95" vertex="1">
          <mxGeometry y="4.25" width="284" height="191" as="geometry" />
        </mxCell>
        <mxCell id="7u3aAnJBbPURBBEsKC7X-97" value="&lt;font style=&quot;font-size: 20px;&quot;&gt;New Agents&lt;/font&gt;" style="text;html=1;align=center;verticalAlign=middle;whiteSpace=wrap;rounded=0;fontSize=14;" parent="7u3aAnJBbPURBBEsKC7X-95" vertex="1">
          <mxGeometry x="82.5" y="15.5" width="112.5" height="30" as="geometry" />
        </mxCell>
        <mxCell id="7u3aAnJBbPURBBEsKC7X-98" value="" style="group" parent="7u3aAnJBbPURBBEsKC7X-95" vertex="1" connectable="0">
          <mxGeometry x="28" y="57.5" width="51" height="51" as="geometry" />
        </mxCell>
        <mxCell id="7u3aAnJBbPURBBEsKC7X-99" value="" style="ellipse;whiteSpace=wrap;html=1;aspect=fixed;fontColor=#97D077;strokeColor=#97D077;strokeWidth=2;" parent="7u3aAnJBbPURBBEsKC7X-98" vertex="1">
          <mxGeometry width="51" height="51" as="geometry" />
        </mxCell>
        <mxCell id="7u3aAnJBbPURBBEsKC7X-100" value="&lt;font style=&quot;font-size: 31px;&quot;&gt;T&lt;/font&gt;" style="text;html=1;align=center;verticalAlign=middle;whiteSpace=wrap;rounded=0;fontSize=31;fontColor=#97D077;" parent="7u3aAnJBbPURBBEsKC7X-98" vertex="1">
          <mxGeometry x="15.75" y="15.25" width="19.5" height="20.5" as="geometry" />
        </mxCell>
        <mxCell id="7u3aAnJBbPURBBEsKC7X-101" value="" style="group" parent="7u3aAnJBbPURBBEsKC7X-95" vertex="1" connectable="0">
          <mxGeometry x="144" y="126.5" width="51" height="51" as="geometry" />
        </mxCell>
        <mxCell id="7u3aAnJBbPURBBEsKC7X-102" value="" style="ellipse;whiteSpace=wrap;html=1;aspect=fixed;fontColor=#97D077;strokeColor=#FF0000;strokeWidth=2;" parent="7u3aAnJBbPURBBEsKC7X-101" vertex="1">
          <mxGeometry width="51" height="51" as="geometry" />
        </mxCell>
        <mxCell id="7u3aAnJBbPURBBEsKC7X-103" value="&lt;font color=&quot;#ff0000&quot; style=&quot;font-size: 31px;&quot;&gt;L&lt;/font&gt;" style="text;html=1;align=center;verticalAlign=middle;whiteSpace=wrap;rounded=0;fontSize=31;fontColor=#97D077;" parent="7u3aAnJBbPURBBEsKC7X-101" vertex="1">
          <mxGeometry x="15.75" y="15.25" width="19.5" height="20.5" as="geometry" />
        </mxCell>
        <mxCell id="7u3aAnJBbPURBBEsKC7X-104" value="" style="group" parent="7u3aAnJBbPURBBEsKC7X-95" vertex="1" connectable="0">
          <mxGeometry x="28" y="126.5" width="51" height="51" as="geometry" />
        </mxCell>
        <mxCell id="7u3aAnJBbPURBBEsKC7X-105" value="" style="ellipse;whiteSpace=wrap;html=1;aspect=fixed;fontColor=#97D077;strokeColor=#FF0000;strokeWidth=2;" parent="7u3aAnJBbPURBBEsKC7X-104" vertex="1">
          <mxGeometry width="51" height="51" as="geometry" />
        </mxCell>
        <mxCell id="7u3aAnJBbPURBBEsKC7X-106" value="&lt;font style=&quot;font-size: 31px;&quot;&gt;L&lt;/font&gt;" style="text;html=1;align=center;verticalAlign=middle;whiteSpace=wrap;rounded=0;fontSize=31;fontColor=#FF0000;" parent="7u3aAnJBbPURBBEsKC7X-104" vertex="1">
          <mxGeometry x="15.75" y="15.25" width="19.5" height="20.5" as="geometry" />
        </mxCell>
        <mxCell id="7u3aAnJBbPURBBEsKC7X-107" value="" style="group" parent="7u3aAnJBbPURBBEsKC7X-95" vertex="1" connectable="0">
          <mxGeometry x="86" y="58.5" width="51" height="51" as="geometry" />
        </mxCell>
        <mxCell id="7u3aAnJBbPURBBEsKC7X-108" value="" style="ellipse;whiteSpace=wrap;html=1;aspect=fixed;fontColor=#97D077;strokeColor=#97D077;strokeWidth=2;" parent="7u3aAnJBbPURBBEsKC7X-107" vertex="1">
          <mxGeometry width="51" height="51" as="geometry" />
        </mxCell>
        <mxCell id="7u3aAnJBbPURBBEsKC7X-109" value="&lt;font style=&quot;font-size: 31px;&quot;&gt;T&lt;/font&gt;" style="text;html=1;align=center;verticalAlign=middle;whiteSpace=wrap;rounded=0;fontSize=31;fontColor=#97D077;" parent="7u3aAnJBbPURBBEsKC7X-107" vertex="1">
          <mxGeometry x="15.75" y="15.25" width="19.5" height="20.5" as="geometry" />
        </mxCell>
        <mxCell id="7u3aAnJBbPURBBEsKC7X-110" value="" style="group" parent="7u3aAnJBbPURBBEsKC7X-95" vertex="1" connectable="0">
          <mxGeometry x="86" y="126.5" width="51" height="51" as="geometry" />
        </mxCell>
        <mxCell id="7u3aAnJBbPURBBEsKC7X-111" value="" style="ellipse;whiteSpace=wrap;html=1;aspect=fixed;fontColor=#97D077;strokeColor=#97D077;strokeWidth=2;" parent="7u3aAnJBbPURBBEsKC7X-110" vertex="1">
          <mxGeometry width="51" height="51" as="geometry" />
        </mxCell>
        <mxCell id="7u3aAnJBbPURBBEsKC7X-112" value="&lt;font style=&quot;font-size: 31px;&quot;&gt;T&lt;/font&gt;" style="text;html=1;align=center;verticalAlign=middle;whiteSpace=wrap;rounded=0;fontSize=31;fontColor=#97D077;" parent="7u3aAnJBbPURBBEsKC7X-110" vertex="1">
          <mxGeometry x="15.75" y="15.25" width="19.5" height="20.5" as="geometry" />
        </mxCell>
        <mxCell id="7u3aAnJBbPURBBEsKC7X-113" value="" style="group" parent="7u3aAnJBbPURBBEsKC7X-95" vertex="1" connectable="0">
          <mxGeometry x="144" y="58.5" width="51" height="51" as="geometry" />
        </mxCell>
        <mxCell id="7u3aAnJBbPURBBEsKC7X-114" value="" style="ellipse;whiteSpace=wrap;html=1;aspect=fixed;fontColor=#97D077;strokeColor=#97D077;strokeWidth=2;" parent="7u3aAnJBbPURBBEsKC7X-113" vertex="1">
          <mxGeometry width="51" height="51" as="geometry" />
        </mxCell>
        <mxCell id="7u3aAnJBbPURBBEsKC7X-115" value="&lt;font style=&quot;font-size: 31px;&quot;&gt;T&lt;/font&gt;" style="text;html=1;align=center;verticalAlign=middle;whiteSpace=wrap;rounded=0;fontSize=31;fontColor=#97D077;" parent="7u3aAnJBbPURBBEsKC7X-113" vertex="1">
          <mxGeometry x="15.75" y="15.25" width="19.5" height="20.5" as="geometry" />
        </mxCell>
        <mxCell id="7u3aAnJBbPURBBEsKC7X-116" value="" style="group" parent="7u3aAnJBbPURBBEsKC7X-95" vertex="1" connectable="0">
          <mxGeometry x="202" y="60.5" width="51" height="51" as="geometry" />
        </mxCell>
        <mxCell id="7u3aAnJBbPURBBEsKC7X-117" value="" style="ellipse;whiteSpace=wrap;html=1;aspect=fixed;fontColor=#97D077;strokeColor=#97D077;strokeWidth=2;" parent="7u3aAnJBbPURBBEsKC7X-116" vertex="1">
          <mxGeometry width="51" height="51" as="geometry" />
        </mxCell>
        <mxCell id="7u3aAnJBbPURBBEsKC7X-118" value="&lt;font style=&quot;font-size: 31px;&quot;&gt;T&lt;/font&gt;" style="text;html=1;align=center;verticalAlign=middle;whiteSpace=wrap;rounded=0;fontSize=31;fontColor=#97D077;" parent="7u3aAnJBbPURBBEsKC7X-116" vertex="1">
          <mxGeometry x="15.75" y="15.25" width="19.5" height="20.5" as="geometry" />
        </mxCell>
        <mxCell id="7u3aAnJBbPURBBEsKC7X-119" value="" style="group" parent="7u3aAnJBbPURBBEsKC7X-95" vertex="1" connectable="0">
          <mxGeometry x="202" y="126.5" width="51" height="51" as="geometry" />
        </mxCell>
        <mxCell id="7u3aAnJBbPURBBEsKC7X-120" value="" style="ellipse;whiteSpace=wrap;html=1;aspect=fixed;fontColor=#97D077;strokeColor=#97D077;strokeWidth=2;" parent="7u3aAnJBbPURBBEsKC7X-119" vertex="1">
          <mxGeometry width="51" height="51" as="geometry" />
        </mxCell>
        <mxCell id="7u3aAnJBbPURBBEsKC7X-121" value="&lt;font style=&quot;font-size: 31px;&quot;&gt;T&lt;/font&gt;" style="text;html=1;align=center;verticalAlign=middle;whiteSpace=wrap;rounded=0;fontSize=31;fontColor=#97D077;" parent="7u3aAnJBbPURBBEsKC7X-119" vertex="1">
          <mxGeometry x="15.75" y="15.25" width="19.5" height="20.5" as="geometry" />
        </mxCell>
        <mxCell id="7u3aAnJBbPURBBEsKC7X-122" value="&lt;font color=&quot;#ffffff&quot; style=&quot;font-size: 31px;&quot;&gt;1&lt;/font&gt;" style="text;html=1;align=center;verticalAlign=middle;whiteSpace=wrap;rounded=0;fontSize=31;fontColor=#97D077;" parent="1" vertex="1">
          <mxGeometry x="549.75" y="798.25" width="19.5" height="20.5" as="geometry" />
        </mxCell>
        <mxCell id="7u3aAnJBbPURBBEsKC7X-123" value="&lt;font color=&quot;#ffffff&quot; style=&quot;font-size: 31px;&quot;&gt;N&lt;/font&gt;" style="text;html=1;align=center;verticalAlign=middle;whiteSpace=wrap;rounded=0;fontSize=31;fontColor=#97D077;" parent="1" vertex="1">
          <mxGeometry x="549.75" y="929.75" width="19.5" height="20.5" as="geometry" />
        </mxCell>
        <mxCell id="7u3aAnJBbPURBBEsKC7X-124" value="" style="endArrow=none;dashed=1;html=1;rounded=0;entryX=0.5;entryY=1;entryDx=0;entryDy=0;exitX=0.5;exitY=0;exitDx=0;exitDy=0;" parent="1" source="7u3aAnJBbPURBBEsKC7X-92" target="7u3aAnJBbPURBBEsKC7X-89" edge="1">
          <mxGeometry width="50" height="50" relative="1" as="geometry">
            <mxPoint x="513" y="887" as="sourcePoint" />
            <mxPoint x="563" y="837" as="targetPoint" />
          </mxGeometry>
        </mxCell>
        <mxCell id="7u3aAnJBbPURBBEsKC7X-184" value="&lt;b&gt;RANDOM&lt;/b&gt;" style="text;html=1;align=left;verticalAlign=middle;whiteSpace=wrap;rounded=0;fontSize=48;" parent="1" vertex="1">
          <mxGeometry x="1161" y="234" width="224" height="30" as="geometry" />
        </mxCell>
        <mxCell id="7u3aAnJBbPURBBEsKC7X-287" value="" style="group" parent="1" vertex="1" connectable="0">
          <mxGeometry x="888" y="297" width="788" height="507" as="geometry" />
        </mxCell>
        <mxCell id="7u3aAnJBbPURBBEsKC7X-228" value="" style="rounded=0;whiteSpace=wrap;html=1;" parent="7u3aAnJBbPURBBEsKC7X-287" vertex="1">
          <mxGeometry width="788" height="507" as="geometry" />
        </mxCell>
        <mxCell id="7u3aAnJBbPURBBEsKC7X-229" value="" style="group" parent="7u3aAnJBbPURBBEsKC7X-287" vertex="1" connectable="0">
          <mxGeometry x="167" y="117" width="327" height="161" as="geometry" />
        </mxCell>
        <mxCell id="7u3aAnJBbPURBBEsKC7X-230" value="" style="rounded=0;whiteSpace=wrap;html=1;" parent="7u3aAnJBbPURBBEsKC7X-229" vertex="1">
          <mxGeometry width="327" height="161" as="geometry" />
        </mxCell>
        <mxCell id="7u3aAnJBbPURBBEsKC7X-231" value="" style="group" parent="7u3aAnJBbPURBBEsKC7X-229" vertex="1" connectable="0">
          <mxGeometry x="7" y="4" width="141" height="151" as="geometry" />
        </mxCell>
        <mxCell id="7u3aAnJBbPURBBEsKC7X-232" value="" style="rounded=0;whiteSpace=wrap;html=1;" parent="7u3aAnJBbPURBBEsKC7X-231" vertex="1">
          <mxGeometry width="141" height="151" as="geometry" />
        </mxCell>
        <mxCell id="7u3aAnJBbPURBBEsKC7X-233" value="" style="group" parent="7u3aAnJBbPURBBEsKC7X-231" vertex="1" connectable="0">
          <mxGeometry x="17" y="16" width="51" height="51" as="geometry" />
        </mxCell>
        <mxCell id="7u3aAnJBbPURBBEsKC7X-234" value="" style="ellipse;whiteSpace=wrap;html=1;aspect=fixed;fontColor=#97D077;strokeColor=#97D077;strokeWidth=2;" parent="7u3aAnJBbPURBBEsKC7X-233" vertex="1">
          <mxGeometry width="51" height="51" as="geometry" />
        </mxCell>
        <mxCell id="7u3aAnJBbPURBBEsKC7X-235" value="&lt;font style=&quot;font-size: 31px;&quot;&gt;T&lt;/font&gt;" style="text;html=1;align=center;verticalAlign=middle;whiteSpace=wrap;rounded=0;fontSize=31;fontColor=#97D077;" parent="7u3aAnJBbPURBBEsKC7X-233" vertex="1">
          <mxGeometry x="15.75" y="15.25" width="19.5" height="20.5" as="geometry" />
        </mxCell>
        <mxCell id="7u3aAnJBbPURBBEsKC7X-236" value="" style="group" parent="7u3aAnJBbPURBBEsKC7X-231" vertex="1" connectable="0">
          <mxGeometry x="17" y="85" width="51" height="51" as="geometry" />
        </mxCell>
        <mxCell id="7u3aAnJBbPURBBEsKC7X-237" value="" style="ellipse;whiteSpace=wrap;html=1;aspect=fixed;fontColor=#97D077;strokeColor=#FF0000;strokeWidth=2;" parent="7u3aAnJBbPURBBEsKC7X-236" vertex="1">
          <mxGeometry width="51" height="51" as="geometry" />
        </mxCell>
        <mxCell id="7u3aAnJBbPURBBEsKC7X-238" value="&lt;font style=&quot;font-size: 31px;&quot;&gt;L&lt;/font&gt;" style="text;html=1;align=center;verticalAlign=middle;whiteSpace=wrap;rounded=0;fontSize=31;fontColor=#FF0000;" parent="7u3aAnJBbPURBBEsKC7X-236" vertex="1">
          <mxGeometry x="15.75" y="15.25" width="19.5" height="20.5" as="geometry" />
        </mxCell>
        <mxCell id="7u3aAnJBbPURBBEsKC7X-239" value="" style="group" parent="7u3aAnJBbPURBBEsKC7X-231" vertex="1" connectable="0">
          <mxGeometry x="75" y="17" width="51" height="51" as="geometry" />
        </mxCell>
        <mxCell id="7u3aAnJBbPURBBEsKC7X-240" value="" style="ellipse;whiteSpace=wrap;html=1;aspect=fixed;fontColor=#97D077;strokeColor=#97D077;strokeWidth=2;" parent="7u3aAnJBbPURBBEsKC7X-239" vertex="1">
          <mxGeometry width="51" height="51" as="geometry" />
        </mxCell>
        <mxCell id="7u3aAnJBbPURBBEsKC7X-241" value="&lt;font style=&quot;font-size: 31px;&quot;&gt;T&lt;/font&gt;" style="text;html=1;align=center;verticalAlign=middle;whiteSpace=wrap;rounded=0;fontSize=31;fontColor=#97D077;" parent="7u3aAnJBbPURBBEsKC7X-239" vertex="1">
          <mxGeometry x="15.75" y="15.25" width="19.5" height="20.5" as="geometry" />
        </mxCell>
        <mxCell id="7u3aAnJBbPURBBEsKC7X-242" value="" style="group" parent="7u3aAnJBbPURBBEsKC7X-231" vertex="1" connectable="0">
          <mxGeometry x="75" y="85" width="51" height="51" as="geometry" />
        </mxCell>
        <mxCell id="7u3aAnJBbPURBBEsKC7X-243" value="" style="ellipse;whiteSpace=wrap;html=1;aspect=fixed;fontColor=#97D077;strokeColor=#97D077;strokeWidth=2;" parent="7u3aAnJBbPURBBEsKC7X-242" vertex="1">
          <mxGeometry width="51" height="51" as="geometry" />
        </mxCell>
        <mxCell id="7u3aAnJBbPURBBEsKC7X-244" value="&lt;font style=&quot;font-size: 31px;&quot;&gt;T&lt;/font&gt;" style="text;html=1;align=center;verticalAlign=middle;whiteSpace=wrap;rounded=0;fontSize=31;fontColor=#97D077;" parent="7u3aAnJBbPURBBEsKC7X-242" vertex="1">
          <mxGeometry x="15.75" y="15.25" width="19.5" height="20.5" as="geometry" />
        </mxCell>
        <mxCell id="7u3aAnJBbPURBBEsKC7X-245" value="" style="group" parent="7u3aAnJBbPURBBEsKC7X-229" vertex="1" connectable="0">
          <mxGeometry x="154" y="21" width="165" height="120" as="geometry" />
        </mxCell>
        <mxCell id="7u3aAnJBbPURBBEsKC7X-246" value="" style="group" parent="7u3aAnJBbPURBBEsKC7X-245" vertex="1" connectable="0">
          <mxGeometry x="114" y="3" width="51" height="51" as="geometry" />
        </mxCell>
        <mxCell id="7u3aAnJBbPURBBEsKC7X-247" value="" style="ellipse;whiteSpace=wrap;html=1;aspect=fixed;fontColor=#97D077;strokeColor=#97D077;strokeWidth=2;" parent="7u3aAnJBbPURBBEsKC7X-246" vertex="1">
          <mxGeometry width="51" height="51" as="geometry" />
        </mxCell>
        <mxCell id="7u3aAnJBbPURBBEsKC7X-248" value="&lt;font style=&quot;font-size: 31px;&quot;&gt;T&lt;/font&gt;" style="text;html=1;align=center;verticalAlign=middle;whiteSpace=wrap;rounded=0;fontSize=31;fontColor=#97D077;" parent="7u3aAnJBbPURBBEsKC7X-246" vertex="1">
          <mxGeometry x="15.75" y="15.25" width="19.5" height="20.5" as="geometry" />
        </mxCell>
        <mxCell id="7u3aAnJBbPURBBEsKC7X-249" value="" style="group" parent="7u3aAnJBbPURBBEsKC7X-245" vertex="1" connectable="0">
          <mxGeometry x="114" y="69" width="51" height="51" as="geometry" />
        </mxCell>
        <mxCell id="7u3aAnJBbPURBBEsKC7X-250" value="" style="ellipse;whiteSpace=wrap;html=1;aspect=fixed;fontColor=#97D077;strokeColor=#97D077;strokeWidth=2;" parent="7u3aAnJBbPURBBEsKC7X-249" vertex="1">
          <mxGeometry width="51" height="51" as="geometry" />
        </mxCell>
        <mxCell id="7u3aAnJBbPURBBEsKC7X-251" value="&lt;font style=&quot;font-size: 31px;&quot;&gt;T&lt;/font&gt;" style="text;html=1;align=center;verticalAlign=middle;whiteSpace=wrap;rounded=0;fontSize=31;fontColor=#97D077;" parent="7u3aAnJBbPURBBEsKC7X-249" vertex="1">
          <mxGeometry x="15.75" y="15.25" width="19.5" height="20.5" as="geometry" />
        </mxCell>
        <mxCell id="7u3aAnJBbPURBBEsKC7X-252" value="" style="group" parent="7u3aAnJBbPURBBEsKC7X-245" vertex="1" connectable="0">
          <mxGeometry y="68" width="51" height="51" as="geometry" />
        </mxCell>
        <mxCell id="7u3aAnJBbPURBBEsKC7X-253" value="" style="ellipse;whiteSpace=wrap;html=1;aspect=fixed;fontColor=#97D077;strokeColor=#FF0000;strokeWidth=2;" parent="7u3aAnJBbPURBBEsKC7X-252" vertex="1">
          <mxGeometry width="51" height="51" as="geometry" />
        </mxCell>
        <mxCell id="7u3aAnJBbPURBBEsKC7X-254" value="&lt;font color=&quot;#ff0000&quot; style=&quot;font-size: 31px;&quot;&gt;L&lt;/font&gt;" style="text;html=1;align=center;verticalAlign=middle;whiteSpace=wrap;rounded=0;fontSize=31;fontColor=#97D077;" parent="7u3aAnJBbPURBBEsKC7X-252" vertex="1">
          <mxGeometry x="15.75" y="15.25" width="19.5" height="20.5" as="geometry" />
        </mxCell>
        <mxCell id="7u3aAnJBbPURBBEsKC7X-255" value="" style="group" parent="7u3aAnJBbPURBBEsKC7X-245" vertex="1" connectable="0">
          <mxGeometry width="51" height="51" as="geometry" />
        </mxCell>
        <mxCell id="7u3aAnJBbPURBBEsKC7X-256" value="" style="ellipse;whiteSpace=wrap;html=1;aspect=fixed;fontColor=#97D077;strokeColor=#97D077;strokeWidth=2;" parent="7u3aAnJBbPURBBEsKC7X-255" vertex="1">
          <mxGeometry width="51" height="51" as="geometry" />
        </mxCell>
        <mxCell id="7u3aAnJBbPURBBEsKC7X-257" value="&lt;font style=&quot;font-size: 31px;&quot;&gt;T&lt;/font&gt;" style="text;html=1;align=center;verticalAlign=middle;whiteSpace=wrap;rounded=0;fontSize=31;fontColor=#97D077;" parent="7u3aAnJBbPURBBEsKC7X-255" vertex="1">
          <mxGeometry x="15.75" y="15.25" width="19.5" height="20.5" as="geometry" />
        </mxCell>
        <mxCell id="7u3aAnJBbPURBBEsKC7X-258" value="" style="group" parent="7u3aAnJBbPURBBEsKC7X-245" vertex="1" connectable="0">
          <mxGeometry x="58" y="2" width="51" height="51" as="geometry" />
        </mxCell>
        <mxCell id="7u3aAnJBbPURBBEsKC7X-259" value="" style="ellipse;whiteSpace=wrap;html=1;aspect=fixed;fontColor=#97D077;strokeColor=#97D077;strokeWidth=2;" parent="7u3aAnJBbPURBBEsKC7X-258" vertex="1">
          <mxGeometry width="51" height="51" as="geometry" />
        </mxCell>
        <mxCell id="7u3aAnJBbPURBBEsKC7X-260" value="&lt;font style=&quot;font-size: 31px;&quot;&gt;T&lt;/font&gt;" style="text;html=1;align=center;verticalAlign=middle;whiteSpace=wrap;rounded=0;fontSize=31;fontColor=#97D077;" parent="7u3aAnJBbPURBBEsKC7X-258" vertex="1">
          <mxGeometry x="15.75" y="15.25" width="19.5" height="20.5" as="geometry" />
        </mxCell>
        <mxCell id="7u3aAnJBbPURBBEsKC7X-261" value="" style="group" parent="7u3aAnJBbPURBBEsKC7X-245" vertex="1" connectable="0">
          <mxGeometry x="58" y="68" width="51" height="51" as="geometry" />
        </mxCell>
        <mxCell id="7u3aAnJBbPURBBEsKC7X-262" value="" style="ellipse;whiteSpace=wrap;html=1;aspect=fixed;fontColor=#97D077;strokeColor=#97D077;strokeWidth=2;" parent="7u3aAnJBbPURBBEsKC7X-261" vertex="1">
          <mxGeometry width="51" height="51" as="geometry" />
        </mxCell>
        <mxCell id="7u3aAnJBbPURBBEsKC7X-263" value="&lt;font style=&quot;font-size: 31px;&quot;&gt;T&lt;/font&gt;" style="text;html=1;align=center;verticalAlign=middle;whiteSpace=wrap;rounded=0;fontSize=31;fontColor=#97D077;" parent="7u3aAnJBbPURBBEsKC7X-261" vertex="1">
          <mxGeometry x="15.75" y="15.25" width="19.5" height="20.5" as="geometry" />
        </mxCell>
        <mxCell id="7u3aAnJBbPURBBEsKC7X-264" value="&lt;font style=&quot;font-size: 24px;&quot;&gt;Agents&lt;/font&gt;" style="text;html=1;align=center;verticalAlign=middle;whiteSpace=wrap;rounded=0;fontStyle=0;fontSize=24;" parent="7u3aAnJBbPURBBEsKC7X-287" vertex="1">
          <mxGeometry x="176" y="81" width="60" height="30" as="geometry" />
        </mxCell>
        <mxCell id="7u3aAnJBbPURBBEsKC7X-265" value="" style="group" parent="7u3aAnJBbPURBBEsKC7X-287" vertex="1" connectable="0">
          <mxGeometry x="155" y="333" width="259" height="94" as="geometry" />
        </mxCell>
        <mxCell id="7u3aAnJBbPURBBEsKC7X-266" value="" style="group" parent="7u3aAnJBbPURBBEsKC7X-265" vertex="1" connectable="0">
          <mxGeometry x="11" y="34" width="248" height="60" as="geometry" />
        </mxCell>
        <mxCell id="7u3aAnJBbPURBBEsKC7X-267" value="" style="rounded=0;whiteSpace=wrap;html=1;" parent="7u3aAnJBbPURBBEsKC7X-266" vertex="1">
          <mxGeometry width="248" height="60" as="geometry" />
        </mxCell>
        <mxCell id="7u3aAnJBbPURBBEsKC7X-268" value="" style="group" parent="7u3aAnJBbPURBBEsKC7X-266" vertex="1" connectable="0">
          <mxGeometry x="11" y="4.5" width="51" height="51" as="geometry" />
        </mxCell>
        <mxCell id="7u3aAnJBbPURBBEsKC7X-269" value="" style="ellipse;whiteSpace=wrap;html=1;aspect=fixed;fontColor=#97D077;strokeColor=#FF0000;strokeWidth=2;" parent="7u3aAnJBbPURBBEsKC7X-268" vertex="1">
          <mxGeometry width="51" height="51" as="geometry" />
        </mxCell>
        <mxCell id="7u3aAnJBbPURBBEsKC7X-270" value="&lt;font style=&quot;font-size: 31px;&quot;&gt;L&lt;/font&gt;" style="text;html=1;align=center;verticalAlign=middle;whiteSpace=wrap;rounded=0;fontSize=31;fontColor=#FF0000;" parent="7u3aAnJBbPURBBEsKC7X-268" vertex="1">
          <mxGeometry x="15.75" y="15.25" width="19.5" height="20.5" as="geometry" />
        </mxCell>
        <mxCell id="7u3aAnJBbPURBBEsKC7X-271" value="" style="group" parent="7u3aAnJBbPURBBEsKC7X-266" vertex="1" connectable="0">
          <mxGeometry x="69" y="4.5" width="51" height="51" as="geometry" />
        </mxCell>
        <mxCell id="7u3aAnJBbPURBBEsKC7X-272" value="" style="ellipse;whiteSpace=wrap;html=1;aspect=fixed;fontColor=#97D077;strokeColor=#97D077;strokeWidth=2;" parent="7u3aAnJBbPURBBEsKC7X-271" vertex="1">
          <mxGeometry width="51" height="51" as="geometry" />
        </mxCell>
        <mxCell id="7u3aAnJBbPURBBEsKC7X-273" value="&lt;font style=&quot;font-size: 31px;&quot;&gt;T&lt;/font&gt;" style="text;html=1;align=center;verticalAlign=middle;whiteSpace=wrap;rounded=0;fontSize=31;fontColor=#97D077;" parent="7u3aAnJBbPURBBEsKC7X-271" vertex="1">
          <mxGeometry x="16" y="15.25" width="19.5" height="20.5" as="geometry" />
        </mxCell>
        <mxCell id="7u3aAnJBbPURBBEsKC7X-274" value="" style="group" parent="7u3aAnJBbPURBBEsKC7X-266" vertex="1" connectable="0">
          <mxGeometry x="128" y="5.5" width="51" height="51" as="geometry" />
        </mxCell>
        <mxCell id="7u3aAnJBbPURBBEsKC7X-275" value="" style="ellipse;whiteSpace=wrap;html=1;aspect=fixed;fontColor=#97D077;strokeColor=#97D077;strokeWidth=2;" parent="7u3aAnJBbPURBBEsKC7X-274" vertex="1">
          <mxGeometry width="51" height="51" as="geometry" />
        </mxCell>
        <mxCell id="7u3aAnJBbPURBBEsKC7X-276" value="&lt;font style=&quot;font-size: 31px;&quot;&gt;T&lt;/font&gt;" style="text;html=1;align=center;verticalAlign=middle;whiteSpace=wrap;rounded=0;fontSize=31;fontColor=#97D077;" parent="7u3aAnJBbPURBBEsKC7X-274" vertex="1">
          <mxGeometry x="15" y="15.25" width="19.5" height="20.5" as="geometry" />
        </mxCell>
        <mxCell id="7u3aAnJBbPURBBEsKC7X-277" value="" style="group" parent="7u3aAnJBbPURBBEsKC7X-266" vertex="1" connectable="0">
          <mxGeometry x="186" y="5.5" width="51" height="51" as="geometry" />
        </mxCell>
        <mxCell id="7u3aAnJBbPURBBEsKC7X-278" value="" style="ellipse;whiteSpace=wrap;html=1;aspect=fixed;fontColor=#97D077;strokeColor=#97D077;strokeWidth=2;" parent="7u3aAnJBbPURBBEsKC7X-277" vertex="1">
          <mxGeometry width="51" height="51" as="geometry" />
        </mxCell>
        <mxCell id="7u3aAnJBbPURBBEsKC7X-279" value="&lt;font style=&quot;font-size: 31px;&quot;&gt;T&lt;/font&gt;" style="text;html=1;align=center;verticalAlign=middle;whiteSpace=wrap;rounded=0;fontSize=31;fontColor=#97D077;" parent="7u3aAnJBbPURBBEsKC7X-277" vertex="1">
          <mxGeometry x="15" y="15.25" width="19.5" height="20.5" as="geometry" />
        </mxCell>
        <mxCell id="7u3aAnJBbPURBBEsKC7X-280" value="&lt;font style=&quot;font-size: 24px;&quot;&gt;Random agents&lt;/font&gt;" style="text;html=1;align=center;verticalAlign=middle;whiteSpace=wrap;rounded=0;fontStyle=0;fontSize=24;" parent="7u3aAnJBbPURBBEsKC7X-265" vertex="1">
          <mxGeometry width="200.5" height="30" as="geometry" />
        </mxCell>
        <mxCell id="7u3aAnJBbPURBBEsKC7X-281" style="edgeStyle=orthogonalEdgeStyle;rounded=0;orthogonalLoop=1;jettySize=auto;html=1;exitX=0;exitY=0.5;exitDx=0;exitDy=0;entryX=0;entryY=0.5;entryDx=0;entryDy=0;" parent="7u3aAnJBbPURBBEsKC7X-287" source="7u3aAnJBbPURBBEsKC7X-230" target="7u3aAnJBbPURBBEsKC7X-267" edge="1">
          <mxGeometry relative="1" as="geometry">
            <Array as="points">
              <mxPoint x="111" y="197" />
              <mxPoint x="111" y="397" />
            </Array>
          </mxGeometry>
        </mxCell>
        <mxCell id="7u3aAnJBbPURBBEsKC7X-282" value="Random selection" style="text;html=1;align=center;verticalAlign=middle;whiteSpace=wrap;rounded=0;rotation=-90;" parent="7u3aAnJBbPURBBEsKC7X-287" vertex="1">
          <mxGeometry x="46" y="275" width="101" height="30" as="geometry" />
        </mxCell>
        <mxCell id="7u3aAnJBbPURBBEsKC7X-283" value="Count algorithm&lt;div style=&quot;font-size: 17px;&quot;&gt;Network value&lt;/div&gt;" style="rounded=0;whiteSpace=wrap;html=1;fontSize=17;" parent="7u3aAnJBbPURBBEsKC7X-287" vertex="1">
          <mxGeometry x="576" y="342" width="156" height="85" as="geometry" />
        </mxCell>
        <mxCell id="7u3aAnJBbPURBBEsKC7X-284" value="Client" style="text;html=1;align=center;verticalAlign=middle;whiteSpace=wrap;rounded=0;fontStyle=0;fontSize=24;" parent="7u3aAnJBbPURBBEsKC7X-287" vertex="1">
          <mxGeometry x="583" y="307" width="60" height="30" as="geometry" />
        </mxCell>
        <mxCell id="7u3aAnJBbPURBBEsKC7X-285" style="edgeStyle=orthogonalEdgeStyle;rounded=0;orthogonalLoop=1;jettySize=auto;html=1;exitX=1;exitY=0.5;exitDx=0;exitDy=0;entryX=0;entryY=0.5;entryDx=0;entryDy=0;startArrow=classic;startFill=1;endArrow=none;endFill=0;" parent="7u3aAnJBbPURBBEsKC7X-287" source="7u3aAnJBbPURBBEsKC7X-267" target="7u3aAnJBbPURBBEsKC7X-283" edge="1">
          <mxGeometry relative="1" as="geometry" />
        </mxCell>
        <mxCell id="7u3aAnJBbPURBBEsKC7X-286" style="edgeStyle=orthogonalEdgeStyle;rounded=0;orthogonalLoop=1;jettySize=auto;html=1;entryX=0.946;entryY=0.024;entryDx=0;entryDy=0;entryPerimeter=0;exitX=0.713;exitY=1.006;exitDx=0;exitDy=0;exitPerimeter=0;startArrow=none;startFill=0;endArrow=classic;endFill=1;" parent="7u3aAnJBbPURBBEsKC7X-287" source="7u3aAnJBbPURBBEsKC7X-230" target="7u3aAnJBbPURBBEsKC7X-267" edge="1">
          <mxGeometry relative="1" as="geometry" />
        </mxCell>
        <mxCell id="hCL0Xa--LQ7PiU2SkSc2-1" value="GET /value" style="text;html=1;align=center;verticalAlign=middle;whiteSpace=wrap;rounded=0;rotation=0;" vertex="1" parent="7u3aAnJBbPURBBEsKC7X-287">
          <mxGeometry x="389" y="303" width="101" height="30" as="geometry" />
        </mxCell>
        <mxCell id="hCL0Xa--LQ7PiU2SkSc2-2" value="/playexpert" style="text;html=1;align=center;verticalAlign=middle;whiteSpace=wrap;rounded=0;rotation=0;" vertex="1" parent="7u3aAnJBbPURBBEsKC7X-287">
          <mxGeometry x="439" y="397" width="101" height="30" as="geometry" />
        </mxCell>
        <mxCell id="7u3aAnJBbPURBBEsKC7X-321" value="" style="group" parent="1" vertex="1" connectable="0">
          <mxGeometry x="28" y="1155" width="794.5" height="989.75" as="geometry" />
        </mxCell>
        <mxCell id="7u3aAnJBbPURBBEsKC7X-200" value="FINDING LIARS" style="text;html=1;align=left;verticalAlign=middle;whiteSpace=wrap;rounded=0;fontSize=48;fontStyle=1" parent="7u3aAnJBbPURBBEsKC7X-321" vertex="1">
          <mxGeometry x="218" width="359" height="30" as="geometry" />
        </mxCell>
        <mxCell id="7u3aAnJBbPURBBEsKC7X-201" value="" style="rounded=0;whiteSpace=wrap;html=1;" parent="7u3aAnJBbPURBBEsKC7X-321" vertex="1">
          <mxGeometry y="73" width="794" height="306" as="geometry" />
        </mxCell>
        <mxCell id="7u3aAnJBbPURBBEsKC7X-204" value="/find_liars" style="text;html=1;align=center;verticalAlign=middle;whiteSpace=wrap;rounded=0;fontSize=20;" parent="7u3aAnJBbPURBBEsKC7X-321" vertex="1">
          <mxGeometry x="436" y="213" width="60" height="30" as="geometry" />
        </mxCell>
        <mxCell id="7u3aAnJBbPURBBEsKC7X-205" value="Agents" style="rounded=0;whiteSpace=wrap;html=1;fontSize=32;" parent="7u3aAnJBbPURBBEsKC7X-321" vertex="1">
          <mxGeometry x="299" y="97" width="156" height="85" as="geometry" />
        </mxCell>
        <mxCell id="7u3aAnJBbPURBBEsKC7X-206" value="" style="endArrow=classic;html=1;rounded=0;entryX=0.148;entryY=0.99;entryDx=0;entryDy=0;entryPerimeter=0;" parent="7u3aAnJBbPURBBEsKC7X-321" edge="1">
          <mxGeometry width="50" height="50" relative="1" as="geometry">
            <mxPoint x="339" y="318" as="sourcePoint" />
            <mxPoint x="338.3279999999995" y="181.99999999999997" as="targetPoint" />
          </mxGeometry>
        </mxCell>
        <mxCell id="7u3aAnJBbPURBBEsKC7X-207" value="" style="endArrow=classic;html=1;rounded=0;entryX=0.148;entryY=0.99;entryDx=0;entryDy=0;entryPerimeter=0;" parent="7u3aAnJBbPURBBEsKC7X-321" edge="1">
          <mxGeometry width="50" height="50" relative="1" as="geometry">
            <mxPoint x="355" y="316" as="sourcePoint" />
            <mxPoint x="354.2399999999998" y="182.85" as="targetPoint" />
          </mxGeometry>
        </mxCell>
        <mxCell id="7u3aAnJBbPURBBEsKC7X-208" value="" style="endArrow=classic;html=1;rounded=0;entryX=0.148;entryY=0.99;entryDx=0;entryDy=0;entryPerimeter=0;" parent="7u3aAnJBbPURBBEsKC7X-321" edge="1">
          <mxGeometry width="50" height="50" relative="1" as="geometry">
            <mxPoint x="370" y="313" as="sourcePoint" />
            <mxPoint x="370.2399999999998" y="182.85" as="targetPoint" />
          </mxGeometry>
        </mxCell>
        <mxCell id="7u3aAnJBbPURBBEsKC7X-209" value="" style="endArrow=classic;html=1;rounded=0;entryX=0.148;entryY=0.99;entryDx=0;entryDy=0;entryPerimeter=0;" parent="7u3aAnJBbPURBBEsKC7X-321" edge="1">
          <mxGeometry width="50" height="50" relative="1" as="geometry">
            <mxPoint x="383" y="312" as="sourcePoint" />
            <mxPoint x="383.2399999999998" y="182.85" as="targetPoint" />
          </mxGeometry>
        </mxCell>
        <mxCell id="7u3aAnJBbPURBBEsKC7X-210" value="" style="endArrow=classic;html=1;rounded=0;entryX=0.148;entryY=0.99;entryDx=0;entryDy=0;entryPerimeter=0;exitX=0.615;exitY=0.033;exitDx=0;exitDy=0;exitPerimeter=0;" parent="7u3aAnJBbPURBBEsKC7X-321" source="7u3aAnJBbPURBBEsKC7X-212" edge="1">
          <mxGeometry width="50" height="50" relative="1" as="geometry">
            <mxPoint x="399" y="315" as="sourcePoint" />
            <mxPoint x="399.2399999999998" y="183.85" as="targetPoint" />
          </mxGeometry>
        </mxCell>
        <mxCell id="7u3aAnJBbPURBBEsKC7X-211" value="" style="endArrow=classic;html=1;rounded=0;entryX=0.148;entryY=0.99;entryDx=0;entryDy=0;entryPerimeter=0;" parent="7u3aAnJBbPURBBEsKC7X-321" edge="1">
          <mxGeometry width="50" height="50" relative="1" as="geometry">
            <mxPoint x="415" y="317" as="sourcePoint" />
            <mxPoint x="415.2399999999998" y="183.85" as="targetPoint" />
          </mxGeometry>
        </mxCell>
        <mxCell id="7u3aAnJBbPURBBEsKC7X-225" value="" style="endArrow=classic;html=1;rounded=0;entryX=0.148;entryY=0.99;entryDx=0;entryDy=0;entryPerimeter=0;" parent="7u3aAnJBbPURBBEsKC7X-321" target="7u3aAnJBbPURBBEsKC7X-212" edge="1">
          <mxGeometry width="50" height="50" relative="1" as="geometry">
            <mxPoint x="399" y="315" as="sourcePoint" />
            <mxPoint x="399.2399999999998" y="183.85" as="targetPoint" />
          </mxGeometry>
        </mxCell>
        <mxCell id="7u3aAnJBbPURBBEsKC7X-212" value="Client" style="rounded=0;whiteSpace=wrap;html=1;fontSize=32;" parent="7u3aAnJBbPURBBEsKC7X-321" vertex="1">
          <mxGeometry x="303" y="273" width="156" height="85" as="geometry" />
        </mxCell>
        <mxCell id="7u3aAnJBbPURBBEsKC7X-226" value="" style="rounded=0;whiteSpace=wrap;html=1;" parent="7u3aAnJBbPURBBEsKC7X-321" vertex="1">
          <mxGeometry x="0.5" y="379" width="794" height="306" as="geometry" />
        </mxCell>
        <mxCell id="7u3aAnJBbPURBBEsKC7X-227" value="" style="rounded=0;whiteSpace=wrap;html=1;" parent="7u3aAnJBbPURBBEsKC7X-321" vertex="1">
          <mxGeometry x="0.5" y="683.75" width="794" height="306" as="geometry" />
        </mxCell>
        <mxCell id="7u3aAnJBbPURBBEsKC7X-303" value="" style="group" parent="7u3aAnJBbPURBBEsKC7X-321" vertex="1" connectable="0">
          <mxGeometry x="172" y="405" width="447" height="270" as="geometry" />
        </mxCell>
        <mxCell id="7u3aAnJBbPURBBEsKC7X-297" style="edgeStyle=orthogonalEdgeStyle;rounded=0;orthogonalLoop=1;jettySize=auto;html=1;exitX=0.5;exitY=0;exitDx=0;exitDy=0;entryX=0.5;entryY=1;entryDx=0;entryDy=0;" parent="7u3aAnJBbPURBBEsKC7X-303" source="7u3aAnJBbPURBBEsKC7X-288" target="7u3aAnJBbPURBBEsKC7X-289" edge="1">
          <mxGeometry relative="1" as="geometry" />
        </mxCell>
        <mxCell id="7u3aAnJBbPURBBEsKC7X-301" style="edgeStyle=orthogonalEdgeStyle;rounded=0;orthogonalLoop=1;jettySize=auto;html=1;entryX=0;entryY=0.5;entryDx=0;entryDy=0;" parent="7u3aAnJBbPURBBEsKC7X-303" source="7u3aAnJBbPURBBEsKC7X-288" target="7u3aAnJBbPURBBEsKC7X-300" edge="1">
          <mxGeometry relative="1" as="geometry" />
        </mxCell>
        <mxCell id="7u3aAnJBbPURBBEsKC7X-288" value="&lt;b style=&quot;font-size: 25px;&quot;&gt;&lt;font style=&quot;font-size: 25px;&quot;&gt;Agent 1&lt;/font&gt;&lt;/b&gt;" style="ellipse;whiteSpace=wrap;html=1;aspect=fixed;fontSize=25;" parent="7u3aAnJBbPURBBEsKC7X-303" vertex="1">
          <mxGeometry x="91.5" y="169" width="101" height="101" as="geometry" />
        </mxCell>
        <mxCell id="7u3aAnJBbPURBBEsKC7X-295" value="" style="group" parent="7u3aAnJBbPURBBEsKC7X-303" vertex="1" connectable="0">
          <mxGeometry width="284" height="93" as="geometry" />
        </mxCell>
        <mxCell id="7u3aAnJBbPURBBEsKC7X-289" value="" style="rounded=0;whiteSpace=wrap;html=1;" parent="7u3aAnJBbPURBBEsKC7X-295" vertex="1">
          <mxGeometry width="284" height="93" as="geometry" />
        </mxCell>
        <mxCell id="7u3aAnJBbPURBBEsKC7X-293" style="edgeStyle=orthogonalEdgeStyle;rounded=0;orthogonalLoop=1;jettySize=auto;html=1;entryX=0;entryY=0.5;entryDx=0;entryDy=0;endArrow=none;endFill=0;dashed=1;dashPattern=8 8;" parent="7u3aAnJBbPURBBEsKC7X-295" target="7u3aAnJBbPURBBEsKC7X-292" edge="1">
          <mxGeometry relative="1" as="geometry">
            <mxPoint x="78" y="46.5" as="sourcePoint" />
          </mxGeometry>
        </mxCell>
        <mxCell id="7u3aAnJBbPURBBEsKC7X-292" value="&lt;b style=&quot;font-size: 15px;&quot;&gt;&lt;font style=&quot;font-size: 15px;&quot;&gt;Agent n&lt;/font&gt;&lt;/b&gt;" style="ellipse;whiteSpace=wrap;html=1;aspect=fixed;fontSize=15;" parent="7u3aAnJBbPURBBEsKC7X-295" vertex="1">
          <mxGeometry x="205" y="11" width="71" height="71" as="geometry" />
        </mxCell>
        <mxCell id="7u3aAnJBbPURBBEsKC7X-294" value="&lt;b style=&quot;font-size: 15px;&quot;&gt;&lt;font style=&quot;font-size: 15px;&quot;&gt;Agent 2&lt;/font&gt;&lt;/b&gt;" style="ellipse;whiteSpace=wrap;html=1;aspect=fixed;fontSize=15;" parent="7u3aAnJBbPURBBEsKC7X-295" vertex="1">
          <mxGeometry x="7" y="11" width="71" height="71" as="geometry" />
        </mxCell>
        <mxCell id="7u3aAnJBbPURBBEsKC7X-296" style="edgeStyle=orthogonalEdgeStyle;rounded=0;orthogonalLoop=1;jettySize=auto;html=1;exitX=0;exitY=0;exitDx=0;exitDy=0;entryX=0.074;entryY=0.991;entryDx=0;entryDy=0;entryPerimeter=0;" parent="7u3aAnJBbPURBBEsKC7X-303" source="7u3aAnJBbPURBBEsKC7X-288" target="7u3aAnJBbPURBBEsKC7X-289" edge="1">
          <mxGeometry relative="1" as="geometry" />
        </mxCell>
        <mxCell id="7u3aAnJBbPURBBEsKC7X-298" style="edgeStyle=orthogonalEdgeStyle;rounded=0;orthogonalLoop=1;jettySize=auto;html=1;exitX=1;exitY=0;exitDx=0;exitDy=0;entryX=0.854;entryY=1;entryDx=0;entryDy=0;entryPerimeter=0;" parent="7u3aAnJBbPURBBEsKC7X-303" source="7u3aAnJBbPURBBEsKC7X-288" target="7u3aAnJBbPURBBEsKC7X-289" edge="1">
          <mxGeometry relative="1" as="geometry" />
        </mxCell>
        <mxCell id="7u3aAnJBbPURBBEsKC7X-299" value="GET /value" style="text;html=1;align=center;verticalAlign=middle;whiteSpace=wrap;rounded=0;fontSize=20;" parent="7u3aAnJBbPURBBEsKC7X-303" vertex="1">
          <mxGeometry x="27" y="100" width="110" height="30" as="geometry" />
        </mxCell>
        <mxCell id="7u3aAnJBbPURBBEsKC7X-300" value="Suspects [n]" style="rounded=0;whiteSpace=wrap;html=1;fontSize=19;" parent="7u3aAnJBbPURBBEsKC7X-303" vertex="1">
          <mxGeometry x="327" y="189.5" width="120" height="60" as="geometry" />
        </mxCell>
        <mxCell id="7u3aAnJBbPURBBEsKC7X-302" value="count algorithm" style="text;html=1;align=center;verticalAlign=middle;whiteSpace=wrap;rounded=0;fontSize=20;" parent="7u3aAnJBbPURBBEsKC7X-303" vertex="1">
          <mxGeometry x="205" y="176" width="110" height="30" as="geometry" />
        </mxCell>
        <mxCell id="7u3aAnJBbPURBBEsKC7X-305" value="Agents" style="rounded=0;whiteSpace=wrap;html=1;fontSize=25;" parent="7u3aAnJBbPURBBEsKC7X-321" vertex="1">
          <mxGeometry x="296" y="714" width="235" height="60" as="geometry" />
        </mxCell>
        <mxCell id="7u3aAnJBbPURBBEsKC7X-306" value="Count algorithm&lt;div&gt;Kill most suspicious agent&lt;/div&gt;" style="rounded=0;whiteSpace=wrap;html=1;fontSize=25;" parent="7u3aAnJBbPURBBEsKC7X-321" vertex="1">
          <mxGeometry x="260" y="889" width="307" height="60" as="geometry" />
        </mxCell>
        <mxCell id="7u3aAnJBbPURBBEsKC7X-307" value="Client" style="text;html=1;align=center;verticalAlign=middle;whiteSpace=wrap;rounded=0;fontSize=24;fontStyle=1" parent="7u3aAnJBbPURBBEsKC7X-321" vertex="1">
          <mxGeometry x="264" y="859" width="62" height="30" as="geometry" />
        </mxCell>
        <mxCell id="7u3aAnJBbPURBBEsKC7X-308" value="" style="endArrow=classic;html=1;rounded=0;entryX=0.304;entryY=-0.044;entryDx=0;entryDy=0;entryPerimeter=0;exitX=0.25;exitY=1;exitDx=0;exitDy=0;" parent="7u3aAnJBbPURBBEsKC7X-321" source="7u3aAnJBbPURBBEsKC7X-305" target="7u3aAnJBbPURBBEsKC7X-306" edge="1">
          <mxGeometry width="50" height="50" relative="1" as="geometry">
            <mxPoint x="291" y="799" as="sourcePoint" />
            <mxPoint x="341" y="749" as="targetPoint" />
          </mxGeometry>
        </mxCell>
        <mxCell id="7u3aAnJBbPURBBEsKC7X-309" value="" style="endArrow=classic;html=1;rounded=0;entryX=0.304;entryY=-0.044;entryDx=0;entryDy=0;entryPerimeter=0;exitX=0.25;exitY=1;exitDx=0;exitDy=0;" parent="7u3aAnJBbPURBBEsKC7X-321" edge="1">
          <mxGeometry width="50" height="50" relative="1" as="geometry">
            <mxPoint x="374" y="774" as="sourcePoint" />
            <mxPoint x="372" y="886" as="targetPoint" />
          </mxGeometry>
        </mxCell>
        <mxCell id="7u3aAnJBbPURBBEsKC7X-310" value="" style="endArrow=classic;html=1;rounded=0;entryX=0.304;entryY=-0.044;entryDx=0;entryDy=0;entryPerimeter=0;exitX=0.25;exitY=1;exitDx=0;exitDy=0;" parent="7u3aAnJBbPURBBEsKC7X-321" edge="1">
          <mxGeometry width="50" height="50" relative="1" as="geometry">
            <mxPoint x="393" y="774" as="sourcePoint" />
            <mxPoint x="391" y="886" as="targetPoint" />
          </mxGeometry>
        </mxCell>
        <mxCell id="7u3aAnJBbPURBBEsKC7X-311" value="" style="endArrow=classic;html=1;rounded=0;entryX=0.304;entryY=-0.044;entryDx=0;entryDy=0;entryPerimeter=0;exitX=0.25;exitY=1;exitDx=0;exitDy=0;" parent="7u3aAnJBbPURBBEsKC7X-321" edge="1">
          <mxGeometry width="50" height="50" relative="1" as="geometry">
            <mxPoint x="414.5" y="774" as="sourcePoint" />
            <mxPoint x="412.5" y="886" as="targetPoint" />
          </mxGeometry>
        </mxCell>
        <mxCell id="7u3aAnJBbPURBBEsKC7X-313" value="" style="endArrow=classic;html=1;rounded=0;entryX=0.304;entryY=-0.044;entryDx=0;entryDy=0;entryPerimeter=0;exitX=0.25;exitY=1;exitDx=0;exitDy=0;" parent="7u3aAnJBbPURBBEsKC7X-321" edge="1">
          <mxGeometry width="50" height="50" relative="1" as="geometry">
            <mxPoint x="431" y="774" as="sourcePoint" />
            <mxPoint x="429" y="886" as="targetPoint" />
          </mxGeometry>
        </mxCell>
        <mxCell id="7u3aAnJBbPURBBEsKC7X-314" value="" style="endArrow=classic;html=1;rounded=0;entryX=0.304;entryY=-0.044;entryDx=0;entryDy=0;entryPerimeter=0;exitX=0.25;exitY=1;exitDx=0;exitDy=0;" parent="7u3aAnJBbPURBBEsKC7X-321" edge="1">
          <mxGeometry width="50" height="50" relative="1" as="geometry">
            <mxPoint x="450" y="774" as="sourcePoint" />
            <mxPoint x="448" y="886" as="targetPoint" />
          </mxGeometry>
        </mxCell>
        <mxCell id="hCL0Xa--LQ7PiU2SkSc2-6" value="count algorithm" style="text;html=1;align=center;verticalAlign=middle;whiteSpace=wrap;rounded=0;fontSize=20;" vertex="1" parent="7u3aAnJBbPURBBEsKC7X-321">
          <mxGeometry x="451" y="808" width="110" height="30" as="geometry" />
        </mxCell>
        <mxCell id="7u3aAnJBbPURBBEsKC7X-348" value="LIST OF LIARS" style="text;html=1;align=center;verticalAlign=middle;whiteSpace=wrap;rounded=0;fontSize=48;fontStyle=1" parent="1" vertex="1">
          <mxGeometry x="1096" y="1369" width="359" height="30" as="geometry" />
        </mxCell>
        <mxCell id="7u3aAnJBbPURBBEsKC7X-322" value="EXPERT EXTEND" style="text;html=1;align=left;verticalAlign=middle;whiteSpace=wrap;rounded=0;fontSize=48;fontStyle=1" parent="1" vertex="1">
          <mxGeometry x="-623" y="1346" width="414" height="30" as="geometry" />
        </mxCell>
        <mxCell id="7u3aAnJBbPURBBEsKC7X-333" value="" style="rounded=0;whiteSpace=wrap;html=1;" parent="1" vertex="1">
          <mxGeometry x="-707" y="1431" width="565" height="524" as="geometry" />
        </mxCell>
        <mxCell id="7u3aAnJBbPURBBEsKC7X-328" style="edgeStyle=orthogonalEdgeStyle;rounded=0;orthogonalLoop=1;jettySize=auto;html=1;exitX=1;exitY=0.5;exitDx=0;exitDy=0;entryX=0;entryY=0.5;entryDx=0;entryDy=0;startArrow=classic;startFill=1;endArrow=none;endFill=0;" parent="1" source="7u3aAnJBbPURBBEsKC7X-315" target="7u3aAnJBbPURBBEsKC7X-317" edge="1">
          <mxGeometry relative="1" as="geometry" />
        </mxCell>
        <mxCell id="7u3aAnJBbPURBBEsKC7X-316" value="Agents" style="rounded=0;whiteSpace=wrap;html=1;fontSize=27;" parent="1" vertex="1">
          <mxGeometry x="-663" y="1743" width="193" height="121" as="geometry" />
        </mxCell>
        <mxCell id="7u3aAnJBbPURBBEsKC7X-317" value="&lt;font style=&quot;font-size: 19px;&quot;&gt;Count algorithm&lt;/font&gt;&lt;div style=&quot;font-size: 19px;&quot;&gt;Network value&lt;/div&gt;" style="rounded=0;whiteSpace=wrap;html=1;fontSize=19;" parent="1" vertex="1">
          <mxGeometry x="-382.5" y="1538" width="210" height="126" as="geometry" />
        </mxCell>
        <mxCell id="7u3aAnJBbPURBBEsKC7X-318" value="GET /value" style="text;html=1;align=center;verticalAlign=middle;whiteSpace=wrap;rounded=0;" parent="1" vertex="1">
          <mxGeometry x="-637" y="1685" width="60" height="30" as="geometry" />
        </mxCell>
        <mxCell id="7u3aAnJBbPURBBEsKC7X-323" value="" style="endArrow=classic;html=1;rounded=0;exitX=0.5;exitY=1;exitDx=0;exitDy=0;entryX=0.5;entryY=0;entryDx=0;entryDy=0;" parent="1" source="7u3aAnJBbPURBBEsKC7X-315" target="7u3aAnJBbPURBBEsKC7X-316" edge="1">
          <mxGeometry width="50" height="50" relative="1" as="geometry">
            <mxPoint x="-479.5" y="1615" as="sourcePoint" />
            <mxPoint x="-429.5" y="1565" as="targetPoint" />
          </mxGeometry>
        </mxCell>
        <mxCell id="7u3aAnJBbPURBBEsKC7X-324" value="" style="endArrow=classic;html=1;rounded=0;exitX=0.5;exitY=1;exitDx=0;exitDy=0;entryX=0.5;entryY=0;entryDx=0;entryDy=0;" parent="1" edge="1">
          <mxGeometry width="50" height="50" relative="1" as="geometry">
            <mxPoint x="-557.5" y="1650" as="sourcePoint" />
            <mxPoint x="-557.5" y="1743" as="targetPoint" />
          </mxGeometry>
        </mxCell>
        <mxCell id="7u3aAnJBbPURBBEsKC7X-325" value="" style="endArrow=classic;html=1;rounded=0;exitX=0.5;exitY=1;exitDx=0;exitDy=0;entryX=0.5;entryY=0;entryDx=0;entryDy=0;" parent="1" edge="1">
          <mxGeometry width="50" height="50" relative="1" as="geometry">
            <mxPoint x="-548.5" y="1650" as="sourcePoint" />
            <mxPoint x="-548.5" y="1743" as="targetPoint" />
          </mxGeometry>
        </mxCell>
        <mxCell id="7u3aAnJBbPURBBEsKC7X-326" value="" style="endArrow=classic;html=1;rounded=0;exitX=0.5;exitY=1;exitDx=0;exitDy=0;entryX=0.5;entryY=0;entryDx=0;entryDy=0;" parent="1" edge="1">
          <mxGeometry width="50" height="50" relative="1" as="geometry">
            <mxPoint x="-575.5" y="1650" as="sourcePoint" />
            <mxPoint x="-575.5" y="1743" as="targetPoint" />
          </mxGeometry>
        </mxCell>
        <mxCell id="7u3aAnJBbPURBBEsKC7X-329" value="/playexpert" style="text;html=1;align=center;verticalAlign=middle;whiteSpace=wrap;rounded=0;" parent="1" vertex="1">
          <mxGeometry x="-451" y="1562" width="60" height="30" as="geometry" />
        </mxCell>
        <mxCell id="7u3aAnJBbPURBBEsKC7X-330" value="Client" style="text;html=1;align=center;verticalAlign=middle;whiteSpace=wrap;rounded=0;fontSize=24;fontStyle=1" parent="1" vertex="1">
          <mxGeometry x="-380.5" y="1504" width="62" height="30" as="geometry" />
        </mxCell>
        <mxCell id="7u3aAnJBbPURBBEsKC7X-315" value="Extended agents" style="rounded=0;whiteSpace=wrap;html=1;fontSize=19;" parent="1" vertex="1">
          <mxGeometry x="-677" y="1542" width="221" height="118" as="geometry" />
        </mxCell>
        <mxCell id="7u3aAnJBbPURBBEsKC7X-351" value="" style="rounded=0;whiteSpace=wrap;html=1;" parent="1" vertex="1">
          <mxGeometry x="869" y="1430" width="813" height="524" as="geometry" />
        </mxCell>
        <mxCell id="7u3aAnJBbPURBBEsKC7X-337" value="Agent list" style="swimlane;fontStyle=1;childLayout=stackLayout;horizontal=1;startSize=30;horizontalStack=0;resizeParent=1;resizeParentMax=0;resizeLast=0;collapsible=1;marginBottom=0;whiteSpace=wrap;html=1;fontSize=17;" parent="1" vertex="1">
          <mxGeometry x="900" y="1566" width="222" height="240" as="geometry">
            <mxRectangle x="1055" y="1341" width="54" height="30" as="alternateBounds" />
          </mxGeometry>
        </mxCell>
        <mxCell id="7u3aAnJBbPURBBEsKC7X-338" value="Port&lt;span style=&quot;white-space: pre; font-size: 17px;&quot;&gt;&#x9;&lt;/span&gt;&lt;span style=&quot;white-space: pre; font-size: 17px;&quot;&gt;&#x9;&lt;/span&gt;&lt;span style=&quot;white-space: pre; font-size: 17px;&quot;&gt;&#x9;&lt;/span&gt;&lt;span style=&quot;white-space: pre; font-size: 17px;&quot;&gt;&#x9;&lt;/span&gt;&amp;nbsp; Liar" style="text;strokeColor=none;fillColor=none;align=left;verticalAlign=middle;spacingLeft=4;spacingRight=4;overflow=hidden;points=[[0,0.5],[1,0.5]];portConstraint=eastwest;rotatable=0;whiteSpace=wrap;html=1;fontSize=17;fontStyle=1" parent="7u3aAnJBbPURBBEsKC7X-337" vertex="1">
          <mxGeometry y="30" width="222" height="30" as="geometry" />
        </mxCell>
        <mxCell id="7u3aAnJBbPURBBEsKC7X-346" value="8000&lt;span style=&quot;white-space: pre; font-size: 17px;&quot;&gt;&#x9;&lt;/span&gt;&lt;span style=&quot;white-space: pre; font-size: 17px;&quot;&gt;&#x9;&lt;/span&gt;&lt;span style=&quot;white-space: pre; font-size: 17px;&quot;&gt;&#x9;&lt;/span&gt;True" style="text;strokeColor=none;fillColor=none;align=left;verticalAlign=middle;spacingLeft=4;spacingRight=4;overflow=hidden;points=[[0,0.5],[1,0.5]];portConstraint=eastwest;rotatable=0;whiteSpace=wrap;html=1;fontSize=17;fontStyle=1" parent="7u3aAnJBbPURBBEsKC7X-337" vertex="1">
          <mxGeometry y="60" width="222" height="30" as="geometry" />
        </mxCell>
        <mxCell id="7u3aAnJBbPURBBEsKC7X-345" value="8001&lt;span style=&quot;white-space: pre; font-size: 17px;&quot;&gt;&#x9;&lt;/span&gt;&lt;span style=&quot;white-space: pre; font-size: 17px;&quot;&gt;&#x9;&lt;/span&gt;&lt;span style=&quot;white-space: pre; font-size: 17px;&quot;&gt;&#x9;&lt;/span&gt;False" style="text;strokeColor=none;fillColor=none;align=left;verticalAlign=middle;spacingLeft=4;spacingRight=4;overflow=hidden;points=[[0,0.5],[1,0.5]];portConstraint=eastwest;rotatable=0;whiteSpace=wrap;html=1;fontSize=17;fontStyle=1" parent="7u3aAnJBbPURBBEsKC7X-337" vertex="1">
          <mxGeometry y="90" width="222" height="30" as="geometry" />
        </mxCell>
        <mxCell id="7u3aAnJBbPURBBEsKC7X-344" value="&amp;nbsp; &amp;nbsp;-&amp;nbsp;&lt;span style=&quot;white-space: pre; font-size: 17px;&quot;&gt;&#x9;&lt;/span&gt;&lt;span style=&quot;white-space: pre; font-size: 17px;&quot;&gt;&#x9;&lt;/span&gt;&lt;span style=&quot;white-space: pre; font-size: 17px;&quot;&gt;&#x9;&lt;/span&gt;&lt;span style=&quot;white-space: pre; font-size: 17px;&quot;&gt;&#x9;&lt;/span&gt;&amp;nbsp; &amp;nbsp; -" style="text;strokeColor=none;fillColor=none;align=left;verticalAlign=middle;spacingLeft=4;spacingRight=4;overflow=hidden;points=[[0,0.5],[1,0.5]];portConstraint=eastwest;rotatable=0;whiteSpace=wrap;html=1;fontSize=17;fontStyle=1" parent="7u3aAnJBbPURBBEsKC7X-337" vertex="1">
          <mxGeometry y="120" width="222" height="30" as="geometry" />
        </mxCell>
        <mxCell id="7u3aAnJBbPURBBEsKC7X-343" value="&amp;nbsp; &amp;nbsp;-&amp;nbsp;&lt;span style=&quot;white-space: pre; font-size: 17px;&quot;&gt;&#x9;&lt;/span&gt;&lt;span style=&quot;white-space: pre; font-size: 17px;&quot;&gt;&#x9;&lt;/span&gt;&lt;span style=&quot;white-space: pre; font-size: 17px;&quot;&gt;&#x9;&lt;/span&gt;&lt;span style=&quot;white-space: pre; font-size: 17px;&quot;&gt;&#x9;&lt;/span&gt;&amp;nbsp; &amp;nbsp; -" style="text;strokeColor=none;fillColor=none;align=left;verticalAlign=middle;spacingLeft=4;spacingRight=4;overflow=hidden;points=[[0,0.5],[1,0.5]];portConstraint=eastwest;rotatable=0;whiteSpace=wrap;html=1;fontSize=17;fontStyle=1" parent="7u3aAnJBbPURBBEsKC7X-337" vertex="1">
          <mxGeometry y="150" width="222" height="30" as="geometry" />
        </mxCell>
        <mxCell id="7u3aAnJBbPURBBEsKC7X-342" value="&amp;nbsp; &amp;nbsp;-&amp;nbsp;&lt;span style=&quot;white-space: pre; font-size: 17px;&quot;&gt;&#x9;&lt;/span&gt;&lt;span style=&quot;white-space: pre; font-size: 17px;&quot;&gt;&#x9;&lt;/span&gt;&lt;span style=&quot;white-space: pre; font-size: 17px;&quot;&gt;&#x9;&lt;/span&gt;&lt;span style=&quot;white-space: pre; font-size: 17px;&quot;&gt;&#x9;&lt;/span&gt;&amp;nbsp; &amp;nbsp; -" style="text;strokeColor=none;fillColor=none;align=left;verticalAlign=middle;spacingLeft=4;spacingRight=4;overflow=hidden;points=[[0,0.5],[1,0.5]];portConstraint=eastwest;rotatable=0;whiteSpace=wrap;html=1;fontSize=17;fontStyle=1" parent="7u3aAnJBbPURBBEsKC7X-337" vertex="1">
          <mxGeometry y="180" width="222" height="30" as="geometry" />
        </mxCell>
        <mxCell id="7u3aAnJBbPURBBEsKC7X-341" value="&amp;nbsp; &amp;nbsp;n&lt;span style=&quot;white-space: pre; font-size: 17px;&quot;&gt;&#x9;&lt;/span&gt;&lt;span style=&quot;white-space: pre; font-size: 17px;&quot;&gt;&#x9;&lt;/span&gt;&lt;span style=&quot;white-space: pre; font-size: 17px;&quot;&gt;&#x9;&lt;/span&gt;&lt;span style=&quot;white-space: pre; font-size: 17px;&quot;&gt;&#x9;&lt;/span&gt;False" style="text;strokeColor=none;fillColor=none;align=left;verticalAlign=middle;spacingLeft=4;spacingRight=4;overflow=hidden;points=[[0,0.5],[1,0.5]];portConstraint=eastwest;rotatable=0;whiteSpace=wrap;html=1;fontSize=17;fontStyle=1" parent="7u3aAnJBbPURBBEsKC7X-337" vertex="1">
          <mxGeometry y="210" width="222" height="30" as="geometry" />
        </mxCell>
        <mxCell id="7u3aAnJBbPURBBEsKC7X-353" style="edgeStyle=orthogonalEdgeStyle;rounded=0;orthogonalLoop=1;jettySize=auto;html=1;exitX=1;exitY=0.5;exitDx=0;exitDy=0;entryX=0;entryY=0.5;entryDx=0;entryDy=0;startArrow=classic;startFill=1;endArrow=none;endFill=0;" parent="1" source="7u3aAnJBbPURBBEsKC7X-364" target="7u3aAnJBbPURBBEsKC7X-355" edge="1">
          <mxGeometry relative="1" as="geometry" />
        </mxCell>
        <mxCell id="7u3aAnJBbPURBBEsKC7X-354" value="Agents" style="rounded=0;whiteSpace=wrap;html=1;fontSize=27;" parent="1" vertex="1">
          <mxGeometry x="1172" y="1746" width="193" height="121" as="geometry" />
        </mxCell>
        <mxCell id="7u3aAnJBbPURBBEsKC7X-355" value="&lt;font style=&quot;font-size: 19px;&quot;&gt;Count algorithm&lt;/font&gt;&lt;div style=&quot;font-size: 19px;&quot;&gt;Network value&lt;/div&gt;" style="rounded=0;whiteSpace=wrap;html=1;fontSize=19;" parent="1" vertex="1">
          <mxGeometry x="1452.5" y="1541" width="210" height="126" as="geometry" />
        </mxCell>
        <mxCell id="7u3aAnJBbPURBBEsKC7X-356" value="GET /value" style="text;html=1;align=center;verticalAlign=middle;whiteSpace=wrap;rounded=0;" parent="1" vertex="1">
          <mxGeometry x="1195" y="1689" width="60" height="30" as="geometry" />
        </mxCell>
        <mxCell id="7u3aAnJBbPURBBEsKC7X-358" value="" style="endArrow=classic;html=1;rounded=0;exitX=0.5;exitY=1;exitDx=0;exitDy=0;entryX=0.5;entryY=0;entryDx=0;entryDy=0;" parent="1" source="7u3aAnJBbPURBBEsKC7X-364" target="7u3aAnJBbPURBBEsKC7X-354" edge="1">
          <mxGeometry width="50" height="50" relative="1" as="geometry">
            <mxPoint x="1355.5" y="1618" as="sourcePoint" />
            <mxPoint x="1405.5" y="1568" as="targetPoint" />
          </mxGeometry>
        </mxCell>
        <mxCell id="7u3aAnJBbPURBBEsKC7X-359" value="" style="endArrow=classic;html=1;rounded=0;exitX=0.5;exitY=1;exitDx=0;exitDy=0;entryX=0.5;entryY=0;entryDx=0;entryDy=0;" parent="1" edge="1">
          <mxGeometry width="50" height="50" relative="1" as="geometry">
            <mxPoint x="1277.5" y="1653" as="sourcePoint" />
            <mxPoint x="1277.5" y="1746" as="targetPoint" />
          </mxGeometry>
        </mxCell>
        <mxCell id="7u3aAnJBbPURBBEsKC7X-360" value="" style="endArrow=classic;html=1;rounded=0;exitX=0.5;exitY=1;exitDx=0;exitDy=0;entryX=0.5;entryY=0;entryDx=0;entryDy=0;" parent="1" edge="1">
          <mxGeometry width="50" height="50" relative="1" as="geometry">
            <mxPoint x="1286.5" y="1653" as="sourcePoint" />
            <mxPoint x="1286.5" y="1746" as="targetPoint" />
          </mxGeometry>
        </mxCell>
        <mxCell id="7u3aAnJBbPURBBEsKC7X-361" value="" style="endArrow=classic;html=1;rounded=0;exitX=0.5;exitY=1;exitDx=0;exitDy=0;entryX=0.5;entryY=0;entryDx=0;entryDy=0;" parent="1" edge="1">
          <mxGeometry width="50" height="50" relative="1" as="geometry">
            <mxPoint x="1259.5" y="1653" as="sourcePoint" />
            <mxPoint x="1259.5" y="1746" as="targetPoint" />
          </mxGeometry>
        </mxCell>
        <mxCell id="7u3aAnJBbPURBBEsKC7X-363" value="Client" style="text;html=1;align=center;verticalAlign=middle;whiteSpace=wrap;rounded=0;fontSize=24;fontStyle=1" parent="1" vertex="1">
          <mxGeometry x="1454.5" y="1507" width="62" height="30" as="geometry" />
        </mxCell>
        <mxCell id="7u3aAnJBbPURBBEsKC7X-364" value="Expert agents" style="rounded=0;whiteSpace=wrap;html=1;fontSize=19;" parent="1" vertex="1">
          <mxGeometry x="1158" y="1545" width="221" height="118" as="geometry" />
        </mxCell>
        <mxCell id="hCL0Xa--LQ7PiU2SkSc2-8" value="/playexpert" style="text;html=1;align=center;verticalAlign=middle;whiteSpace=wrap;rounded=0;" vertex="1" parent="1">
          <mxGeometry x="1385" y="1573" width="60" height="30" as="geometry" />
        </mxCell>
      </root>
    </mxGraphModel>
  </diagram>
</mxfile>
